<?xml version="1.0" standalone="no"?>
<!DOCTYPE svg PUBLIC "-//W3C//DTD SVG 1.1//EN" "http://www.w3.org/Graphics/SVG/1.1/DTD/svg11.dtd">
<svg xmlns="http://www.w3.org/2000/svg">
<metadata>Copyright (C) 2020 by original authors @ fontello.com</metadata>
<defs>
<font id="ency" horiz-adv-x="1000" >
<font-face font-family="ency" font-weight="400" font-stretch="normal" units-per-em="1000" ascent="850" descent="-150" />
<missing-glyph horiz-adv-x="1000" />
<glyph glyph-name="email" unicode="&#xe80f;" d="M990 847c-6 3-14 3-20 0l-357-211c-9-5-12-17-7-27 5-9 17-12 27-7l256 152-478-496-238 72 310 184c9 5 12 17 7 27-5 9-17 12-27 7l-348-207c-7-4-10-11-9-19 1-8 6-14 14-16l284-87 125-228c0 0 0 0 0-1 2-3 5-6 9-8 2-1 5-2 8-2 5 0 10 2 14 6l144 141 271-83c2-1 4-1 6-1 4 0 8 1 12 4 5 4 8 10 8 16v767c-1 7-5 14-11 17z m-460-640c-2-3-3-7-3-11v-119l-86 156 379 393-290-419z m35-160v122l96-29-96-93z m396 42l-384 118 384 554v-672z m-640 82c-8 8-20 8-28 0l-182-182c-8-8-8-20 0-28 4-4 9-6 14-6s10 2 14 6l182 182c8 8 8 21 0 28z m-243-243c-8 8-20 8-28 0l-45-45c-8-8-8-20 0-28 5-3 10-5 15-5s10 2 14 6l45 45c7 7 7 20-1 27z m201-44c-4 4-9 6-14 6-5 0-10-2-14-6-4-4-6-9-6-14 0-5 2-10 6-14 4-4 9-6 14-6 5 0 10 2 14 6 4 4 6 9 6 14-1 6-3 11-6 14z m145 146c-8 8-20 8-28 0l-96-97c-8-8-8-20 0-28 4-4 9-6 14-6 5 0 10 2 14 6l97 97c7 8 7 20-1 28z m333 7c-8 8-20 8-28 0l-96-97c-8-8-8-20 0-28 4-4 9-6 14-6s10 2 14 6l97 97c7 8 7 21-1 28z m-203 547c-4 4-9 6-14 6-5 0-10-2-14-6-4-4-6-9-6-14 0-5 2-10 6-14 4-4 9-6 14-6 5 0 10 2 14 6 4 4 6 9 6 14-1 5-3 10-6 14z" horiz-adv-x="1000" />

<glyph glyph-name="location" unicode="&#xe810;" d="M328 165c41-58 82-110 110-143 4-5 8-9 11-14h-82c-9 0-17-7-17-17s7-17 17-17h267c9 0 17 7 17 17s-7 17-17 17h-82c4 4 7 9 11 14 27 33 68 85 110 143 41 56 78 116 110 177 34 67 51 122 51 165 0 89-35 173-98 236-4 4-10 6-16 5-6-2-10-6-12-12s0-12 5-16c56-56 88-133 88-212 0-37-16-88-48-150-32-60-68-118-108-173-41-57-81-109-108-142-9-11-17-21-24-29-3-4-8-6-13-6-5 0-9 2-13 6-7 8-15 18-24 29-27 33-68 84-108 142-40 55-76 113-108 173-31 62-47 113-47 150 0 121 72 230 183 277 75 31 159 31 234 0 5-2 12-2 17 2 4 3 7 9 6 15s-5 11-10 13c-170 72-365-8-437-177-17-41-26-85-26-130 0-43 17-98 51-165 32-62 69-121 110-178z m172 493c9 0 17 7 17 17 0 9-7 17-17 17-80 0-148-56-163-134s26-156 100-186c73-30 158-5 202 61s35 154-21 210c-4 4-10 6-16 5-6-2-10-6-12-12-2-6 0-12 5-16 45-45 52-115 17-168-35-53-103-73-162-49s-92 87-80 149c12 61 66 106 130 106z m494-726l-103 183c-9 16-27 26-45 26h-119c-9 0-17-7-17-17 0-9 7-17 17-17h119c7 0 13-3 16-9l102-183c3-5 3-11 0-15-3-6-10-9-16-9h-896c-7 0-13 3-16 9-3 5-3 11 0 15l102 183c3 6 10 9 16 9h119c9 0 17 7 17 17 0 9-7 17-17 17h-119c-19 0-36-10-45-26l-103-183c-9-15-8-34 1-49 9-16 26-26 45-25h897c18 0 36 9 45 25 8 16 8 34 0 49z m-177 126h-67c-3 0-7-1-9-3l-50-33c-8-5-10-15-5-23 5-8 15-10 23-5l46 31h62c9 0 17 7 17 17-1 9-8 16-17 16z m-100-116c0-9 7-17 17-17h133c9 0 17 7 17 17 0 9-7 17-17 17h-134c-9-1-16-8-16-17z m-417 50c7 0 14 5 16 12 2 7-1 15-7 19l-50 33c-3 2-6 3-9 3h-67c-9 0-17-7-17-17 0-9 7-17 17-17h62l46-31c3-1 6-2 9-2z m-167-34c-9 0-17-7-17-17 0-9 7-17 17-17h133c9 0 17 7 17 17 0 9-7 17-17 17h-133z" horiz-adv-x="1000" />

<glyph glyph-name="phone" unicode="&#xe811;" d="M455 88c-8-8-8-20 0-28 8-8 20-8 28 0 8 8 8 20 0 28-8 7-21 7-28 0z m500 34l-148 126c-1 1-1 1-2 2-39 25-89 19-121-13l-81-81c-6-6-14-7-21-4-92 37-167 93-224 168-43 57-59 102-61 108 0 1-1 3-1 4-3 7-1 16 4 21l81 81c33 33 38 83 13 121 0 0 0 1-1 1l-106 149c-34 52-107 60-151 16l-16-16c0 0 0 0 0 0l-58-58c-69-69-80-173-33-300 41-108 123-227 230-335 110-110 232-193 344-234 111-41 229-46 313 38l55 55c44 44 36 117-16 151z m-172 95l148-126c1-1 1-1 2-2 32-20 36-64 10-91l-4-4-253 190 25 25c19 19 49 22 72 8z m-528 567c0-1 0-1 0 0l108-150c15-23 11-53-8-72l-25-24-171 251 5 5c26 26 71 21 91-10z m362-869c-107 39-224 119-330 225-104 104-182 218-221 322-29 77-49 185 24 258l41 41 171-251-29-29c-16-16-22-41-13-62 6-25 35-78 63-117 42-57 119-136 244-187 22-9 47-4 64 13l28 28 253-189-23-23c-78-78-191-59-272-29z m-199 219c-21 18-56 49-75 69-46 47-95 105-123 146-6 9-18 11-27 5-9-6-11-18-5-27 36-52 90-112 127-151 20-20 56-52 77-71 8-7 20-6 28 2 7 8 6 20-2 27z" horiz-adv-x="1000" />

<glyph glyph-name="strategy" unicode="&#xe812;" d="M216 612c0-21 17-38 39-38s38 17 38 38c0 21-17 38-38 38s-39-17-39-38z m48 0c0-5-4-9-9-9-5 0-9 4-9 9 0 5 4 9 9 9 5 0 9-4 9-9z m0 0m-223-762h331c9 0 15 7 15 15 0 8-6 14-15 14h-331c-7 0-12 5-12 12v20c0 6 5 11 12 11h732c6 0 11-5 11-11v-20c0-7-5-12-11-12h-332c-8 0-15-6-15-14 0-8 7-15 15-15h332c22 0 40 18 40 41v20c0 22-18 41-40 41h-4v51c0 25-20 45-45 45h-41v35c0 20-17 37-37 37h-19l-12 231c0 8-7 14-15 14-8-1-14-8-14-16l12-229h-384c13 56 41 107 83 152 65 71 47 155 36 188-6 17-29 22-41 7-15-17-35-15-65-10-15 3-28 5-41 3-22-3-72-18-80-45-3-7-11-10-17-6l-44 33c-12 9-14 27-3 38l62 62c13 13 20 30 20 49 0 11 4 21 12 28l87 91c12 13 16 31 10 48l-22 63c53-3 92-38 107-54 7-8 18-13 29-14 87-7 152-42 193-104 29-46 35-90 35-93l7-138c1-8 8-15 16-14 8 0 14 7 14 15l-8 139c0 0 0 0 0 0 0 2-5 53-39 106-32 48-94 109-215 118-5 1-8 2-11 5-18 19-68 63-135 63-21 0-28-17-24-30l26-72c2-6 0-13-4-17l-87-91c-13-14-20-31-20-49 0-11-4-21-12-29l-62-61c-23-24-20-63 7-83l44-32c22-16 53-6 62 20 2 8 32 22 56 25 8 1 19-1 31-3 26-4 60-11 87 14 10-37 16-97-33-150-46-50-77-108-91-172h-16c-21 0-38-17-38-37v-35h-41c-25 0-45-20-45-45v-51h-3c-23 0-41-19-41-41v-20c0-23 18-41 41-41z m119 233c0 4 3 8 8 8h478c4 0 8-4 8-8v-35h-494z m-86-80c0 9 7 15 15 15h635c9 0 16-6 16-15v-51h-666z m0 0" horiz-adv-x="1000" />

<glyph glyph-name="binoculars" unicode="&#xe813;" d="M948 849h-101c-8 0-15-6-15-15 0-8 7-14 15-14h101c13 0 23-10 23-23v-29c0-12-10-22-23-22-13 0-256 0-271 0-13 0-23 10-23 22v29c0 13 10 23 23 23h101c8 0 15 6 15 14 0 9-7 15-15 15h-101c-29 0-52-23-52-52v-29c0-25 17-45 41-51v-182c-14 0-325 0-332 0v182c24 6 41 26 41 51v29c0 29-23 52-52 52h-271c-29 0-52-23-52-52v-29c0-25 17-45 41-51v-193c0-46 2-91 7-136l26-245c0 0 0 0 0 0l10-91c-20-7-34-26-34-48v-30c0-28 23-52 52-52h219c29 0 52 24 52 52v30c0 24-16 44-39 50 0 19 0 163 0 183h332v-183c-22-6-39-26-39-50v-30c0-28 24-52 52-52h220c28 0 51 24 51 52v30c0 22-14 41-34 48l10 91c0 0 0 0 0 0l22 207c1 8-5 16-13 16-8 1-15-5-16-13l-21-194h-203c0 19 0 527 0 557h235v-192c0-34-1-69-4-103-1-8 5-15 13-15 8-1 15 5 16 13 3 35 4 70 4 105v193c24 6 41 26 41 51v29c0 29-23 52-52 52z m-282-516h-151v105h63c19 0 35 16 35 36v32h53z m-82 173v-32c0-4-3-6-6-6h-156c-3 0-6 2-6 6v32z m-197 0v-32c0-20 16-36 35-36h63v-105h-151v173z m-282-376h200v-75h-192z m-76 638v29c0 13 10 23 23 23h271c13 0 23-10 23-23v-29c0-12-10-22-23-22-15 0-258 0-271 0-13 0-23 10-23 22z m41-52h235v-557h-203l-25 232c-5 44-7 88-7 133z m273-712v-30c0-12-10-22-22-22h-219c-13 0-23 10-23 22v30c0 12 10 22 23 22h219c12 0 22-10 22-22z m-9 262v38h332v-38z m587-292c0-12-10-22-22-22h-220c-12 0-22 10-22 22v30c0 12 10 22 22 22h220c12 0 22-10 22-22z m-26 156l-8-75h-192v75z m0 0" horiz-adv-x="1000" />

<glyph glyph-name="briefcase" unicode="&#xe814;" d="M506 201h-12c-8 0-15-6-15-14 0-8 7-15 15-15h12c8 0 15 7 15 15 0 8-7 14-15 14z m0 0m416 427h-82c-2 21-20 37-41 37h-11v74c0 61-50 111-111 111h-143c-8 0-14-7-14-15 0-8 6-14 14-14h143c45 0 82-37 82-82v-74h-39v74c0 24-19 43-43 43h-365c-24 0-43-19-43-43v-74h-39v74c0 45 37 82 82 82h154c8 0 15 6 15 14 0 8-7 15-15 15h-154c-61 0-111-50-111-111v-74c-21 0-39-16-41-37h-82c-43 0-78-35-78-78v-588c0-43 35-78 78-78h844c43 0 78 35 78 78v244c0 8-7 15-15 15s-14-7-14-15v-244c0-26-22-48-49-48h-844c-27 0-49 22-49 48v427c8-8 17-14 28-19l359-172c0-4-1-7-1-11 0-47 38-85 85-85s85 38 85 85c0 4-1 7-1 11l359 172c11 5 20 11 28 19v-115c0-8 6-14 14-14s15 6 15 14v276c0 43-35 78-78 78z m-123 8c7 0 12-6 12-13v-19c0-7-5-13-12-13h-119c-7 0-13 6-13 13v10c0 0 0 0 0 0v9c0 7 6 13 13 13z m-501 103c0 7 6 13 14 13h365c7 0 13-6 13-13v-74h-10c-21 0-39-16-42-37h-276c-3 21-20 37-42 37h-22z m-109-116c0 7 6 13 13 13h118c7 0 13-6 13-13v-19c0-7-6-13-13-13h-118c-7 0-13 6-13 13 0 7 0 12 0 19z m311-492c-31 0-55 25-55 56 0 27 20 50 46 54 0 1 9 1 9 1 30 0 55-24 55-55 0-31-24-56-55-56z m431 265l-356-170c-14 28-43 46-75 46-32 0-61-19-75-46l-356 170c-24 12-40 37-40 64v90c0 27 22 49 49 49h82c2-21 20-37 42-37h118c21 0 39 16 42 37h276c3-21 20-37 42-37h119c21 0 39 16 41 37h82c27 0 49-22 49-49v-90c0-27-16-52-40-64z m0 0" horiz-adv-x="1000" />

<glyph glyph-name="calendar" unicode="&#xe815;" d="M212 473c0 21-17 39-39 39h-32c-22 0-39-18-39-39v-32c0-22 17-39 39-39h32c22 0 39 17 39 39z m-29-32c0-6-5-10-10-10h-32c-5 0-10 4-10 10v32c0 5 5 10 10 10h32c5 0 10-5 10-10z m0 0m173 32c0 22-18 39-40 39h-32c-21 0-39-17-39-39v-32c0-22 18-39 39-39h32c22 0 40 17 40 39z m-30-32c0-5-4-10-10-10h-32c-5 0-10 5-10 10v32c0 5 5 10 10 10h32c6 0 10-5 10-10z m0 0m102-40h32c21 0 39 18 39 40v32c0 21-18 39-39 39h-32c-22 0-39-18-39-39v-32c0-22 17-40 39-40z m-10 72c0 5 4 10 10 10h32c5 0 10-5 10-10v-32c0-6-5-10-10-10h-32c-6 0-10 4-10 10z m0 0m153-72h32c22 0 40 18 40 40v32c0 21-18 39-40 39h-32c-21 0-39-18-39-39v-32c0-22 18-40 39-40z m-10 72c0 5 5 10 10 10h32c6 0 10-5 10-10v-32c0-6-4-10-10-10h-32c-5 0-10 4-10 10z m0 0m154-72h32c21 0 39 18 39 40v31c0 22-18 40-39 40h-32c-22 0-40-18-40-40v-31c0-22 18-40 40-40z m-10 71c0 6 4 10 10 10h32c5 0 10-4 10-10v-31c0-6-5-11-10-11h-32c-6 0-10 5-10 11z m0 0m-532-245h-32c-22 0-39-18-39-40v-32c0-21 17-39 39-39h32c22 0 39 18 39 39v32c0 22-17 40-39 40z m10-72c0-5-5-10-10-10h-32c-5 0-10 5-10 10v32c0 6 5 10 10 10h32c5 0 10-4 10-10z m0 0m133 72h-32c-21 0-39-18-39-40v-31c0-22 18-40 39-40h32c22 0 40 18 40 40v31c0 22-18 40-40 40z m10-71c0-6-4-11-10-11h-32c-5 0-10 5-10 11v31c0 6 5 11 10 11h32c6 0 10-5 10-11z m0 0m63-1c0-21 17-39 39-39h32c21 0 39 18 39 39v32c0 22-18 39-39 39h-32c-22 0-39-17-39-39z m29 32c0 6 4 10 10 10h32c5 0 10-4 10-10v-32c0-5-5-10-10-10h-32c-6 0-10 5-10 10z m0 0m-206 143c0 22-17 39-39 39h-32c-22 0-39-17-39-39v-32c0-21 17-39 39-39h32c22 0 39 18 39 39z m-29-32c0-5-5-10-10-10h-32c-5 0-10 5-10 10v32c0 6 5 10 10 10h32c5 0 10-4 10-10z m0 0m173 32c0 22-18 39-40 39h-32c-21 0-39-17-39-39v-32c0-21 18-39 39-39h32c22 0 40 18 40 39z m-30-32c0-5-4-10-10-10h-32c-5 0-10 5-10 10v32c0 6 5 10 10 10h32c6 0 10-4 10-10z m0 0m63 0c0-22 17-39 39-39h32c21 0 39 17 39 39v32c0 22-18 39-39 39h-32c-22 0-39-17-39-39z m29 32c0 5 4 10 10 10h32c5 0 10-5 10-10v-32c0-5-5-10-10-10h-32c-6 0-10 5-10 10z m0 0m114-32c0-22 18-39 39-39h32c22 0 40 17 40 39v32c0 21-18 39-40 39h-32c-21 0-39-18-39-39z m29 32c0 5 5 10 10 10h32c6 0 10-5 10-10v-32c0-6-4-10-10-10h-32c-5 0-10 4-10 10z m0 0m114-32c0-22 18-40 40-40h32c21 0 39 18 39 40v32c0 21-18 39-39 39h-32c-22 0-40-18-40-39z m30 32c0 5 4 10 10 10h32c5 0 10-5 10-10v-32c0-6-5-10-10-10h-32c-6 0-10 4-10 10z m0 0m68-256c-6 6-15 6-21 0l-60-60c-6-6-6-15 0-21 6-5 15-5 21 0l49 50 40-40c6-5 15-5 21 0l40 41 14-15c11-10 28-6 31 8l16 66c4 14-9 27-23 24l-66-16c-14-4-18-21-8-31l15-16-29-30z m119 20l-7-31c-8 8-16 16-24 24z m0 0m-853-90h371c8 0 14 6 14 15 0 8-6 14-14 14h-371c-5 0-10 5-10 10v540h829v-348c-18 5-38 8-57 8-65 0-123-31-158-80v24c0 22-18 39-40 39h-32c-21 0-39-17-39-39v-32c0-21 18-39 39-39h32c5 0 10 1 15 3-11-27-16-56-14-86h-126c-8 0-15-6-15-14 0-9 7-15 15-15h131c19-88 98-154 192-154 94 0 175 67 193 160 1 8-4 15-12 17-8 1-15-4-17-12-15-79-84-136-164-136-84 0-154 62-166 142 0 0 0 0 0 0-15 102 63 193 166 193 80 0 149-57 164-136 2-8 9-13 17-12 8 2 13 10 12 17-12 63-52 113-106 140 0 13 0 494 0 502 0 21-18 39-40 39h-57v46c0 22-18 40-40 40-22 0-40-18-40-40v-46h-227v46c0 22-18 40-40 40-22 0-40-18-40-40v-46h-227v46c0 22-18 40-40 40-23 0-41-18-41-40v-46h-57c-21 0-39-18-39-39v-682c0-21 18-39 39-39z m574 151c0-5-4-10-10-10h-32c-5 0-10 5-10 10v32c0 6 5 10 10 10h32c6 0 10-4 10-10z m-476 496c14 0 28 9 35 21-1-19-17-34-35-34-19 0-34 15-35 34 7-12 20-21 35-21z m307 0c14 0 28 8 35 21-1-19-16-34-35-34-19 0-34 15-35 34 7-12 20-21 35-21z m307 0c14 0 28 8 35 21-1-19-16-34-35-34-19 0-34 15-35 34 7-13 20-21 35-21z m97 84c6 0 10-5 10-10v-113h-88c49 15 61 79 21 111v12h57z m-108 75c0 6 5 11 11 11 6 0 11-5 11-11v-118c0-6-5-11-11-11-6 0-11 5-11 11 0 14 0 104 0 118z m-29-75v-12c-40-32-28-96 21-111h-270c50 15 62 79 22 111v12h227z m-278 75c0 6 5 11 11 11 6 0 11-5 11-11v-118c0-6-5-11-11-11-6 0-11 5-11 11 0 14 0 104 0 118z m-29-75v-12c-40-32-28-96 21-111h-270c50 15 62 79 22 111v12h227z m-278 75c0 6 5 11 11 11 6 0 11-5 11-11v-118c0-6-5-11-11-11-6 0-11 5-11 11 0 14 0 104 0 118z m-97-85c0 5 5 10 10 10h57v-12c-40-32-27-96 22-111h-89z m0 0" horiz-adv-x="1000" />

<glyph glyph-name="certificate" unicode="&#xe816;" d="M181 481h345c8 0 14 6 14 15 0 8-6 14-14 14h-345c-8 0-15-6-15-14 0-9 7-15 15-15z m0 0m0-69h345c8 0 14 7 14 15 0 8-6 14-14 14h-345c-8 0-15-6-15-14 0-8 7-15 15-15z m0 0m91 138h182c8 0 15 6 15 14 0 8-7 15-15 15h-182c-8 0-15-7-15-15 0-8 7-14 15-14z m0 0m182-315h-182c-8 0-15-7-15-15 0-8 7-14 15-14h182c8 0 15 6 15 14 0 8-7 15-15 15z m0 0m-273 108h345c8 0 14 7 14 15 0 8-6 15-14 15h-345c-8 0-15-7-15-15 0-8 7-15 15-15z m0 0m359-54c0 8-6 15-14 15h-345c-8 0-15-7-15-15 0-8 7-15 15-15h345c8 0 14 7 14 15z m0 0m102 410c-34 0-61 27-61 61 0 1 0 3 0 5 1 12-9 22-21 22h-394c-12 0-22-10-21-22 3-36-25-66-61-66 0 0 0 0 0 0-12 0-21-10-21-21v-571c0-12 9-21 21-21h0c34 0 61-27 61-61 0-2 0-3 0-5-1-12 9-22 21-22h379v-34h-148c-8 0-14-7-14-15 0-8 6-14 14-14h148v-60c0-20 22-32 38-21 38 25 28 19 66 44 22-14 44-29 66-44 17-11 39 1 39 21v206c19 23 31 54 31 87 0 46-23 87-59 112v115c0 8-7 14-15 14-8 0-14-6-14-14v-100c-11 4-22 7-34 8v375c0 11-9 21-21 21h0m-68-816v171c6-4 14-8 22-12v-144z m61 41l-10-7v117c15-3 32-3 48 0v-117l-10 7c-8 6-19 6-28 0z m89-41l-21 15v144c7 4 15 8 21 12z m32 285c0-62-52-111-115-107-56 4-99 51-99 107 0 58 48 106 106 106 0 0 0 0 0 0 1 0 1 0 1 0 59 0 107-47 107-106z m-582-141c-1 46-36 84-82 88v555c46 4 81 42 82 88h378c1-46 36-84 82-88v-367c-1 0-1 0-1 0-68-8-120-67-120-135 0-32 11-63 32-88v-53z m0 0m475 222c-45 0-81-36-81-81 0-45 36-82 81-82 45 0 82 37 82 82 0 45-37 81-82 81z m0-134c-29 0-52 24-52 53s23 52 52 52c29 0 52-24 52-52s-23-53-52-53z m0 0m-649 665v-775c0-39 31-70 70-70h259c8 0 14 6 14 14 0 8-6 15-14 15h-259c-22 0-41 18-41 41v775c0 23 19 41 41 41h586c22 0 41-18 41-41v-317c0-8 6-15 14-15 8 0 15 7 15 15v317c0 39-31 70-70 70h-586c-39 0-70-31-70-70z m0 0" horiz-adv-x="1000" />

<glyph glyph-name="chart-1" unicode="&#xe817;" d="M37 124h161v-11c0-22 18-40 40-40h23l-68-185c-6-18 8-38 27-38h63c12 0 23 8 27 19l74 204h25c8 0 14 6 14 14 0 8-6 15-14 15-20 0-150 0-171 0-6 0-11 5-11 11v11h433v-11c0-6-5-11-12-11-16 0-150 0-171 0-8 0-14-7-14-15 0-8 6-14 14-14h25l75-204c4-11 14-19 26-19h64c19 0 33 20 26 38l-67 185h22c23 0 41 18 41 40v11h161c20 0 37 16 37 37v42c0 18-14 34-32 37v213c0 8-6 14-14 14-8 0-15-6-15-14v-213h-765v494h765v-213c0-8 7-15 15-15 8 0 14 7 14 15v213c18 3 32 18 32 37v42c0 20-17 37-37 37h-813c-20 0-37-17-37-37v-42c0-19 14-34 32-37v-494c-18-3-32-19-32-37v-42c0-21 17-37 37-37z m316-51l-70-194h-62l71 194z m312-194h-61l-70 194h61z m-636 934c0 4 4 8 8 8h813c4 0 8-4 8-8v-42c0-5-4-8-8-8-16 0-807 0-813 0-4 0-8 3-8 8z m0-610c0 4 4 8 8 8h813c4 0 8-4 8-8v-42c0-5-4-8-8-8-23 0-791 0-813 0-4 0-8 3-8 8z m0 0m710 393c0 29-24 54-54 54-32 0-58-29-53-62l-113-149-103 96c-1 29-25 52-54 52-29 0-53-23-54-52l-105-99c-31 1-56-23-56-54 0-30 24-54 54-54 29 0 53 23 54 52l105 99c2 0 2 0 4 0l106-99c1-29 25-52 54-52 32 0 58 29 53 62l116 152c26 4 46 26 46 54z m-54 24c14 0 25-11 25-24 0-14-11-25-25-25-13 0-25 11-25 25 0 13 12 24 25 24z m-323-63c14 0 25-11 25-24 0-14-11-25-25-25-13 0-25 11-25 25 0 13 12 24 25 24z m-161-200c-14 0-25 12-25 25 0 15 14 27 29 25 0 0 0 0 0 0 12-2 21-13 21-25 0-13-12-25-25-25z m45 55c-3 5-8 10-12 13l83 78c3-5 8-10 12-13z m161 91l84-78c-5-3-9-8-12-13l-84 78c5 3 9 8 12 13z m117-146c-14 0-25 12-25 25 0 12 9 23 20 25 0 0 0 0 0 0 16 2 30-10 30-25 0-13-12-25-25-25z m25 73l97 129c4-5 9-9 14-11l-97-129c-4 5-9 8-14 11z m0 0" horiz-adv-x="1000" />

<glyph glyph-name="chart-2" unicode="&#xe818;" d="M500 850c-133 0-259-52-353-146-196-196-196-512 0-708 94-94 220-146 353-146 120 0 236 43 327 122 6 5 7 14 2 20-6 7-15 7-21 2-82-71-185-111-293-114v119c182 8 328 155 336 336h120c-4-108-45-212-116-294-5-6-5-16 1-21 6-5 16-5 21 2 79 91 123 207 123 328 0 276-224 500-500 500z m350-186l-85-84c-10 11-21 23-33 33l85 85c12-11 23-22 33-34z m47-61l-88-87c-7 14-16 28-25 41l85 85c10-13 19-25 28-39z m37-71l-94-94c-5 17-10 34-17 50l89 89c8-14 16-29 22-45z m-419 187l90 90c17-4 34-9 51-15l-98-98c-14 3-28 4-43 5z m0 42v60c18-1 37-3 55-5z m171 21c15-6 30-13 44-22l-89-89c-15 7-32 13-49 18z m70-37c14-9 26-18 39-28l-86-85c-12 9-26 18-40 26z m-271 76v-120c-181-8-328-154-336-336h-119c7 248 208 448 455 456z m-455-486h119c4-88 42-150 42-150 59-111 171-180 294-186v-119c-247 7-448 208-455 455z m470-307c-177 0-322 145-322 322 0 177 145 322 322 322 177 0 322-145 322-322 0-177-145-322-322-322z m347 376l98 98c6-16 11-34 15-52l-86-85h-23c-1 13-2 26-4 39z m69-39l50 50c3-16 4-33 5-50z m0 0" horiz-adv-x="1000" />

<glyph glyph-name="chart-3" unicode="&#xe819;" d="M779 656l-190 190c-2 2-6 4-10 4h-534c-25 0-45-20-45-45v-910c0-25 20-45 45-45h312c9 0 15 7 15 15s-6 14-15 14h-312c-9 0-16 7-16 16v910c0 9 7 16 16 16h519v-145c0-25 20-45 45-45h145v-247c0-8 7-14 15-14 8 0 14 6 14 14v262c0 3-1 7-4 10z m-170 4c-9 0-16 7-16 16v124l140-140z m0 0m-166 8c8 0 15 7 15 15 0 8-7 15-15 15h-111c-8 0-15-7-15-15 0-8 7-15 15-15z m0 0m23-426c32 0 57 27 52 60l112 147c26 4 46 26 46 53 0 29-24 53-53 53-32 0-57-28-53-60l-109-145-99 93c-1 28-24 51-53 51s-52-23-53-51l-102-96c-30 1-55-23-55-52 0-30 24-53 53-53 29 0 52 22 53 50l102 96c2 0 2 0 4 0l102-96c1-28 24-50 53-50z m0 29c-13 0-24 10-24 24 0 13 11 23 24 23 0 0 0 0 0 0 13 0 24-11 24-23 0-14-11-24-24-24z m157 254c13 0 23-10 23-23 0-16-14-27-29-23-10 2-18 12-18 23 0 13 11 23 24 23z m-25-70l-94-124c-4 4-8 8-13 10l93 124c4-4 9-7 14-10z m-289 9c13 0 24-10 24-23 0-14-11-24-24-24-13 0-24 10-24 24 0 13 11 23 24 23z m-157-193c-13 0-23 10-23 24s10 23 23 23c13 0 24-10 24-23 0-14-11-24-24-24z m44 53c-3 5-7 9-11 12l80 75c3-5 7-9 11-12z m157 87l80-75c-4-3-8-7-11-12l-80 75c4 3 8 7 11 12z m0 0m-2-234h-218c-8 0-15-7-15-15 0-8 7-14 15-14h218c8 0 15 6 15 14 0 8-7 15-15 15z m0 0m0-68h-218c-8 0-15-7-15-15 0-8 7-15 15-15h218c8 0 15 7 15 15 0 8-7 15-15 15z m0 0m0-69h-218c-8 0-15-6-15-14 0-9 7-15 15-15h218c8 0 15 6 15 15 0 8-7 14-15 14z m0 0m291 137h-218c-8 0-15-7-15-15 0-8 7-14 15-14h218c8 0 14 6 14 14 0 8-6 15-14 15z m0 0m0-68h-218c-8 0-15-7-15-15 0-8 7-15 15-15h218c8 0 14 7 14 15 0 8-6 15-14 15z m0 0m-218-98h218c8 0 14 6 14 15 0 8-6 14-14 14h-218c-8 0-15-6-15-14 0-9 7-15 15-15z m0 0m345 320c-8 0-15-7-15-15v-421c0-9-7-16-16-16h-312c-8 0-15-6-15-14s7-15 15-15h312c25 0 45 20 45 45v421c0 8-6 15-14 15z m0 0" horiz-adv-x="1000" />

<glyph glyph-name="chart-4" unicode="&#xe81a;" d="M37 124h161v-11c0-22 18-40 40-40h23l-68-185c-6-18 8-38 27-38h63c12 0 23 8 27 19l74 204h25c8 0 15 6 15 14 0 8-7 15-15 15-20 0-150 0-171 0-6 0-11 5-11 11v11h433v-11c0-6-5-11-12-11-18 0-153 0-170 0-8 0-15-7-15-15 0-8 7-14 15-14h24l75-204c4-11 14-19 26-19h64c19 0 33 20 26 38l-67 185h22c23 0 41 18 41 40v11h161c20 0 37 16 37 37v42c0 18-14 34-32 37v213c0 8-6 14-14 14-8 0-15-6-15-14v-213h-765v494h765v-213c0-8 7-15 15-15 8 0 14 7 14 15v213c18 3 32 18 32 37v42c0 20-17 37-37 37h-813c-20 0-37-17-37-37v-42c0-19 14-34 32-37v-494c-18-3-32-19-32-37v-42c0-21 17-37 37-37z m316-51l-70-194h-62l71 194z m312-194h-61l-70 194h61z m-636 934c0 4 4 8 8 8h813c4 0 8-4 8-8v-42c0-5-4-8-8-8-9 0-804 0-813 0-4 0-8 3-8 8z m0-610c0 4 4 8 8 8h813c4 0 8-4 8-8v-42c0-5-4-8-8-8-21 0-808 0-813 0-4 0-8 3-8 8z m0 0m641 408l23-18c13-10 30-3 32 12l8 86c2 15-14 27-28 21l-80-31c-14-6-16-24-3-34l24-19-135-169c-11 7-112 69-123 76-5 4-12 3-17-1l-211-177c-6-5-7-14-2-20 4-4 9-6 14-5v-31h-21c-8 0-15-7-15-15 0-8 7-14 15-14h532c8 0 15 6 15 14 0 8-7 15-15 15h-18v303z m33 69l-6-54-44 34z m-174-246l47 60v-193h-47z m-133 62l45-28v-167h-45z m-88-53v-142h-48v102z m-107-142v53l30 24v-77z m136 0v166l30 25v-191z m133 0v149l30-18v-131z m165 267v-267h-29v230c17 21 3 3 29 37z m0 0" horiz-adv-x="1000" />

<glyph glyph-name="chart-5" unicode="&#xe81b;" d="M779 656l-190 190c-2 2-6 4-10 4h-534c-25 0-45-20-45-45v-910c0-25 20-45 45-45h312c9 0 15 7 15 15s-6 14-15 14h-312c-9 0-16 7-16 16v910c0 9 7 16 16 16h519v-145c0-25 20-45 45-45h145v-247c0-8 7-14 15-14 8 0 14 6 14 14v262c0 4-1 7-4 10z m-170 4c-9 0-16 7-16 16v124l140-140z m0 0m-68-443c139 139 39 379-157 379-122 0-221-100-221-222 0-122 99-221 221-221 58 0 114 23 157 64z m35 172h-177v177c85-6 168-75 177-177z m-46-140l-111 111h157c-3-42-20-80-46-111z m-21-21c-12-10-25-19-39-26l-45 111z m-317 146c0 101 78 184 178 192v-192c0-2 0-4 1-6l72-177c-19-6-38-9-59-9-106 0-192 86-192 192z m0 0m-16-291h-14c-8 0-14-6-14-14 0-8 6-15 14-15h14c9 0 15 7 15 15 0 8-6 14-15 14z m0 0m167 0h-111c-8 0-15-6-15-14 0-8 7-15 15-15h111c9 0 15 7 15 15 0 8-6 14-15 14z m0 0m97 609c8 0 15 6 15 14 0 8-7 15-15 15h-112c-8 0-14-7-14-15 0-8 6-14 14-14z m0 0m-264-673h-14c-8 0-14-6-14-14 0-9 6-15 14-15h14c9 0 15 6 15 15 0 8-6 14-15 14z m0 0m167 0h-111c-8 0-15-6-15-14 0-9 7-15 15-15h111c9 0 15 6 15 15 0 8-6 14-15 14z m0 0m82 64c-8 0-15-6-15-14 0-8 7-15 15-15h14c8 0 14 7 14 15 0 8-6 14-14 14z m0 0m181 0h-112c-8 0-14-6-14-14 0-8 6-15 14-15h112c8 0 14 7 14 15 0 8-6 14-14 14z m0 0m-181-93h14c8 0 14 6 14 15 0 8-6 14-14 14h-14c-8 0-15-6-15-14 0-9 7-15 15-15z m0 0m181 29h-112c-8 0-14-6-14-14 0-9 6-15 14-15h112c8 0 14 6 14 15 0 8-6 14-14 14z m0 0m163 312c-8 0-15-7-15-15v-421c0-9-7-16-16-16h-312c-8 0-15-6-15-14s7-15 15-15h312c25 0 45 20 45 45v421c0 8-6 15-14 15z m0 0" horiz-adv-x="1000" />

<glyph glyph-name="chart" unicode="&#xe81c;" d="M787 335c9 166-124 303-287 303-159 0-288-129-288-288 0-159 129-288 288-288 152 0 279 119 287 273z m-29 30h-243v243c130-7 236-112 243-243z m-223-30h223c-3-60-28-115-66-157z m137-178c-18-16-39-30-61-40l-70 171z m-430 193c0 138 108 250 243 258v-258c0-2 1-4 2-6l96-238c-26-9-54-14-83-14-142 0-258 116-258 258z m0 0m743-21c-8 0-14-6-14-14v-8c0-8-6-14-14-14h-76c-14 0-25-9-28-22-9-41-25-79-48-114-7-12-5-27 4-36l55-54c5-6 5-14 0-19l-62-62c-5-5-13-5-19 0l-54 55c-9 9-24 11-36 4-35-23-73-39-114-48-13-3-22-14-22-28v-76c0-8-6-14-14-14h-12c-8 0-15-6-15-14 0-8 7-15 15-15h12c24 0 43 19 43 43v76c44 10 85 27 123 51l54-54c16-17 43-17 60 0l61 61c17 17 17 44 0 60l-54 54c24 38 41 79 51 123h76c24 0 43 19 43 43v8c0 8-7 14-15 14z m0 0m-28 107h-76c-10 44-27 85-51 123l54 54c17 16 17 43 0 60l-61 61c-17 17-44 17-60 0l-54-54c-38 24-79 41-123 51v76c0 24-19 43-43 43h-86c-24 0-43-19-43-43v-76c-44-10-85-27-123-51l-54 54c-16 17-43 17-60 0l-61-61c-17-17-17-44 0-60l54-54c-24-38-41-79-51-123h-76c-24 0-43-19-43-43v-86c0-24 19-43 43-43h76c10-44 27-85 51-123l-54-54c-8-8-13-18-13-30 0-11 5-22 13-30l61-61c17-17 44-17 60 0l54 54c38-24 79-41 123-51v-76c0-24 19-43 43-43h5c9 0 15 7 15 15 0 8-6 14-15 14h-5c-8 0-14 6-14 14v76c0 14-9 25-22 28-41 9-79 25-114 48-12 7-27 5-36-4l-54-55c-6-5-14-5-19 0l-61 62c-3 2-4 6-4 9 0 4 1 7 4 10l54 54c9 9 11 24 4 36-23 35-39 73-48 114-3 13-14 22-28 22h-76c-8 0-14 6-14 14v86c0 8 6 14 14 14h76c14 0 25 9 28 22 9 41 25 79 48 114 7 12 5 27-4 36l-54 54c-6 6-6 14 0 19l61 62c5 5 13 5 19 0l54-55c9-9 24-11 36-4 35 23 73 39 114 48 13 3 22 14 22 28v76c0 8 6 14 14 14h86c8 0 14-6 14-14v-76c0-14 9-25 22-28 41-9 79-25 114-48 12-7 27-5 36 4l54 55c6 5 14 5 19 0l62-62c5-5 5-13 0-19l-55-54c-9-9-11-24-4-36 23-35 39-73 48-114 3-13 14-22 28-22h76c8 0 14-6 14-14v-10c0-8 6-14 14-14s15 6 15 14v10c0 24-19 43-43 43z m0 0" horiz-adv-x="1000" />

<glyph glyph-name="check-list" unicode="&#xe81d;" d="M292 690h142c8 0 14 7 14 15 0 8-6 14-14 14h-142c-9 0-15-6-15-14 0-8 6-15 15-15z m0 0m156-105c0 9-6 15-14 15h-142c-9 0-15-6-15-15 0-8 6-14 15-14h142c8 0 14 6 14 14z m0 0m-14-74h-122c-8 0-15-6-15-14 0-8 7-15 15-15h122c8 0 14 7 14 15 0 8-6 14-14 14z m0 0m-137-67c0-8 7-14 15-14h231c8 0 15 6 15 14 0 8-7 15-15 15h-231c-8 0-15-7-15-15z m0 0m15-103h122c8 0 14 6 14 14 0 8-6 15-14 15h-122c-8 0-15-7-15-15 0-8 7-14 15-14z m0 0m231-24h-231c-8 0-15-6-15-14 0-9 7-15 15-15h231c8 0 15 6 15 15 0 8-7 14-15 14z m0 0m-231-118h122c8 0 14 6 14 15 0 8-6 14-14 14h-122c-8 0-15-6-15-14 0-9 7-15 15-15z m0 0m231-23h-231c-8 0-15-7-15-15s7-15 15-15h231c8 0 15 7 15 15s-7 15-15 15z m0 0m-231-119h122c8 0 14 7 14 15 0 8-6 15-14 15h-122c-8 0-15-7-15-15 0-8 7-15 15-15z m0 0m231-23h-231c-8 0-15-7-15-15 0-8 7-14 15-14h231c8 0 15 6 15 14 0 8-7 15-15 15z m0 0m-308 357h-49c-20 0-37-17-37-38v-49c0-20 17-37 37-37h49c21 0 38 17 38 37v49c0 21-17 38-38 38z m8-87c0-4-3-8-8-8h-49c-4 0-8 4-8 8v49c0 5 4 8 8 8h49c5 0 8-3 8-8z m0 0m-8-55h-49c-21 0-37-17-37-37v-49c0-21 16-37 37-37h49c20 0 37 16 37 37v49c0 20-17 37-37 37z m8-86c0-5-4-8-8-8h-49c-4 0-8 3-8 8v49c0 4 4 8 8 8h49c4 0 8-4 8-8z m0 0m-8-56h-49c-21 0-37-16-37-37v-49c0-20 16-37 37-37h49c20 0 37 17 37 37v49c0 21-17 37-37 37z m8-86c0-4-4-8-8-8h-49c-4 0-8 4-8 8v49c0 4 4 8 8 8h49c4 0 8-4 8-8z m0 0m18 502l-1-1c-6 6-15 10-25 10h-49c-20 0-37-16-37-37v-49c0-21 17-37 37-37h49c21 0 38 16 38 37v47l8 9c6 5 6 15 0 21s-14 5-20 0z m-18-77c0-4-3-8-8-8h-49c-4 0-8 4-8 8v49c0 4 4 8 8 8h49c2 0 3-1 4-1l-23-23-9 10c-6 5-15 6-21 0-6-5-6-15-1-21l20-20c6-6 15-6 21 0l17 17z m0 0m468-165c-8 0-15-7-15-15v-346c0-22-18-41-41-41h-258c-8 0-15-6-15-14 0-8 7-15 15-15h258c39 0 70 31 70 70v346c0 8-6 15-14 15z m0 0m14 404c0 38-31 70-70 70h-151c-5 9-15 15-26 15h-50v15c0 36-29 65-65 65-36 0-66-29-66-65v-15h-49c-12 0-22-6-27-15h-151c-39 0-70-32-70-70v-765c0-39 31-70 70-70h259c8 0 14 7 14 15 0 8-6 14-14 14h-259c-22 0-41 19-41 41v765c0 22 19 40 41 40h147v-32h-136c-11 0-19-9-19-19v-743c0-11 8-20 19-20h563c11 0 20 9 20 20v743c0 10-9 19-20 19h-136v32h147c23 0 41-18 41-40v-350c0-8 7-15 15-15 8 0 14 7 14 15z m-398 100c0 20 16 36 36 36 20 0 36-16 36-36v-15h-72z m-79-44h230c0 0 1-1 1-1 0 0 0 0 0 0v-71c0 0-1 0-1 0h-230c-1 0-1 0-1 0 0 26 0 29 0 71 0 0 0 0 0 0 0 0 0 0 0 0v0c0 0 0 1 1 1z m387-800h-544v723h127c3-14 15-25 30-25h230c14 0 27 11 30 25h127z m0 0" horiz-adv-x="1000" />

<glyph glyph-name="chess" unicode="&#xe81e;" d="M40-150h309c8 0 15 7 15 15 0 8-7 14-15 14h-309c-5 0-10 5-10 10v19c0 5 5 10 10 10h686c6 0 10-5 10-10v-19c0-5-4-10-10-10h-309c-8 0-14-6-14-14 0-8 6-15 14-15h309c22 0 39 17 39 39v19c0 22-17 39-39 39h-2v47c0 24-19 43-43 43h-19v36c0 16-10 30-25 35l-25 182c-1 8-8 13-16 12-8-1-14-8-13-16l24-176h-448l57 418h334l24-174c1-8 8-14 16-13 8 2 14 9 13 17-2 15-32 232-33 243h78c21 0 39 18 39 39v171c0 22-18 39-39 39h-33c-21 0-39-17-39-39v-84h-55v84c0 22-17 39-39 39h-32c-22 0-39-17-39-39v-84h-55v84c0 22-18 39-39 39h-33c-21 0-39-17-39-39v-84h-55v84c0 22-17 39-39 39h-32c-22 0-39-17-39-39v-171c0-21 17-39 39-39h78c-3-21-65-478-67-493-15-5-26-19-26-35v-36h-18c-24 0-43-19-43-43v-47h-3c-22 0-39-17-39-39v-19c0-22 17-39 39-39z m506 708h-326l6 43h314c2-11 1-6 6-43z m-437 82v171c0 5 5 10 10 10h32c5 0 10-5 10-10v-85c0-16 13-29 29-29h56c16 0 29 13 29 29v85c0 5 4 10 9 10h33c5 0 9-5 9-10v-85c0-16 13-29 29-29h56c16 0 29 13 29 29v85c0 5 5 10 10 10h32c5 0 10-5 10-10v-85c0-16 13-29 29-29h56c16 0 29 13 29 29v85c0 5 4 10 9 10h33c5 0 9-5 9-10v-171c0-5-4-9-9-9-9 0-519 0-529 0-5 0-10 4-10 9z m25-567c0 4 3 8 9 8h481c6 0 9-4 9-8v-36h-499z m-62-79c0 8 6 14 14 14h595c7 0 14-6 14-14v-47h-623z m0 0" horiz-adv-x="1000" />

<glyph glyph-name="choice" unicode="&#xe81f;" d="M11 380l71-44c13-8 29 2 29 17v8h131c20 0 36 16 36 36 0 20-16 36-36 36h-131v8c0 16-16 25-29 17l-71-43c-13-8-13-28 0-35z m71 44v-6c0-8 6-15 14-15h146c4 0 7-2 7-6 0-3-3-6-7-6h-146c-8 0-14-7-14-15v-5l-44 26z m0 0m744 34c-13 8-29-1-29-17v-8h-132c-19 0-35-16-35-36 0-20 16-36 35-36h132v-8c0-15 16-25 29-17l71 44c13 7 13 27 0 35z m0-87v5c0 8-6 15-14 15h-147c-3 0-6 3-6 6 0 4 3 6 6 6h147c8 0 14 7 14 15v6l44-27z m0 0m-248 150c14-13 37-13 51 0l93 93 5-5c11-11 30-7 33 8l20 81c3 15-10 28-25 25l-82-20c-14-3-19-21-8-32l6-6-93-93c-14-14-14-37 0-51z m21 30l103 103c6 6 6 15 0 21l-4 4 50 12-12-49-4 4c-6 5-15 5-21 0l-103-104c-3-2-6-2-9 0-2 3-2 7 0 9z m0 0m-365 152l-81 20c-15 3-28-10-25-25l20-81c3-15 21-19 32-8l6 5 93-93c14-13 37-13 51 0 14 14 14 37 0 51l-93 93 6 6c11 11 6 29-9 32z m75-152c2-2 2-6 0-9-3-2-7-2-9 0l-103 104c-6 5-15 5-21 0l-4-4-12 49 50-12-4-4c-6-6-6-15 0-21z m0 0m54-388c-130-51-120-47-124-49-13-6-61-34-61-98v-128c0-22 18-40 40-40h203c8 0 15 7 15 15 0 8-7 14-15 14h-119v117c0 9-7 15-15 15-8 0-14-6-14-15v-117h-55c-6 0-11 5-11 11v128c0 34 22 62 47 73 14 5 98 38 110 43l9-9c44-48 118-48 162 0l9 9c13-5 102-39 113-43 2-1 46-21 46-73v-128c0-6-5-11-11-11h-54v117c0 9-7 15-15 15s-15-6-15-15v-117h-119c-8 0-14-6-14-14 0-8 6-15 14-15h203c22 0 40 18 40 40v128c0 64-47 92-61 98-4 2 10-3-144 57v30c22 17 37 43 42 72 28 3 48 26 48 53 0 13-5 25-13 35v43c0 83-67 150-150 150-83 0-151-67-151-150v-45c-8-9-12-20-12-33 0-26 20-50 48-53 5-28 20-56 45-74v-28z m207 140v47c10-3 17-13 17-24 0-10-7-20-17-23z m-237 101c0 66 54 121 121 121 67 0 121-55 121-121v-25c-2 0-3 0-5 1 0 7-3 11-9 17-4 5-18 19-29 32-8 8-21 10-31 3-35-22-76-36-116-37-21-1-29 4-39-6-3-3-6-6-7-10-2 0-5-1-6-1z m-13-78c0 11 8 19 18 23v-46c-11 3-18 13-18 23z m47-36c0 40 0 36 0 76 50-2 102 12 146 39 15-16 24-25 28-29 0-100 0-84 0-87-2-50-42-84-86-84-51 0-88 40-88 85z m130-106v-14c0-11 7-22 18-26-35-37-88-35-121-1 12 5 19 16 19 27v13c26-9 57-10 84 1z m0 0m-37 571v-43c0-9 7-15 15-15 8 0 15 6 15 15v28h8c15 0 25 16 17 29l-44 72c-7 12-27 12-34 0l-44-72c-8-13 2-29 17-29h8v-131c0-20 16-36 36-36 20 0 36 16 36 36v34c0 8-7 15-15 15-8 0-15-7-15-15v-34c0-4-3-7-6-7-4 0-6 3-6 7v146c0 8-7 14-15 14h-6l27 44 27-44h-6c-8 0-15-6-15-14z m0 0" horiz-adv-x="1000" />

<glyph glyph-name="competition" unicode="&#xe820;" d="M673 380v-74c0-15 12-26 26-26h174c14 0 26 11 26 26v74c0 36-24 66-56 75 11 14 18 30 18 49 0 41-34 75-75 75-41 0-74-34-74-75 0-19 6-35 18-49-33-9-57-39-57-75z m113 169c25 0 45-20 45-45 0-25-20-45-45-45h0c-25 0-45 20-45 45 0 25 20 45 45 45z m-83-169c0 27 22 49 49 49h34c0 0 0 0 0 0 0 0 0 0 0 0h34c27 0 50-22 50-49v-71h-20v73c0 8-7 15-15 15-8 0-15-7-15-15v-73h-68v73c0 8-6 15-15 15-8 0-14-7-14-15v-73h-20z m0 0m-315 271v-74c0-14 11-26 25-26h174c14 0 26 12 26 26v74c0 36-24 66-56 76 11 13 18 30 18 48 0 42-34 75-75 75-41 0-74-33-74-75 0-18 6-35 18-48-33-10-56-40-56-76z m112 170c25 0 45-21 45-46 0-24-20-45-45-45-25 0-45 21-45 45 0 25 20 46 45 46z m-83-170c0 28 22 50 49 50h68c27 0 50-22 50-50v-70h-20v73c0 8-7 14-15 14-8 0-15-6-15-14v-73h-68v73c0 8-6 14-15 14s-14-6-14-14v-73h-20z m0 0m-316-161v-74c0-14 12-26 26-26h174c14 0 26 12 26 26v74c0 36-24 66-57 76 12 13 18 30 18 48 0 41-33 75-74 75-41 0-75-34-75-75 0-18 7-35 18-48-32-10-56-40-56-76z m113 169c25 0 45-20 45-45 0-25-20-45-45-45h0c-25 0-45 20-45 45 0 25 20 45 45 45z m-84-169c0 27 23 50 50 50h34 0 0 34c27 0 49-23 49-50v-71h-20v73c0 8-6 15-14 15s-15-7-15-15v-73h-68v73c0 8-7 15-15 15-8 0-15-7-15-15v-73h-20z m0 0m371-42c-1 0-3 0-4-1l-17-10c-2-2-4-4-4-7 0-6 5-10 10-7l4 2v-66c0-8 20-8 20 0v83c0 4-5 6-9 6z m0 0m-264-215c0 18-16 27-31 27-14 0-29-9-29-25 0-8 4-10 9-10 7 0 11 3 11 7 0 7 4 10 10 10 7 0 9-5 9-9 0-17-41-29-41-49v-13c0-3 6-6 9-6h47c3 0 6 4 6 9 0 5-3 9-6 9h-35v1c0 12 41 21 41 49z m0 0m551-104c-6 0-12 1-12 7 0 5-2 7-10 7-7 0-10-2-10-8 0-10 9-24 31-24 18 0 33 8 33 29v3c0 10-5 16-13 19 6 3 10 12 10 21 0 18-13 24-29 24-22 0-30-13-30-23 0-7 1-9 11-9 7 0 9 3 9 8 0 5 4 6 10 6 5 0 10-1 10-9 0-11-6-11-11-11-4 0-5-4-5-8s1-8 5-8c8 0 13-2 13-10v-3c0-8-3-11-12-11z m0 0m177-43h-21v41c0 8-7 15-15 15-8 0-14-7-14-15v-41h-257v150h254c1 0 3-1 3-2v-39c0-8 6-14 14-14 8 0 15 6 15 14v39c0 17-14 31-32 31h-254v240c0 18-15 32-32 32h-252c-17 0-32-14-32-32v-129h-254c-18 0-32-15-32-32v-258h-21c-19 0-35-16-35-35v-23c0-20 16-35 35-35h427c9 0 15 6 15 14s-6 15-15 15h-427c-3 0-6 3-6 6v23c0 3 3 6 6 6h36 858 36c3 0 6-3 6-6v-23c0-3-3-6-6-6h-434c-8 0-15-7-15-15s7-14 15-14h434c19 0 35 15 35 35v23c0 19-16 35-35 35z m-880 258c0 1 2 2 3 2h254v-260h-257z m287 161c0 1 1 3 2 3h252c1 0 2-2 2-3v-419h-256c0 8 0 408 0 419z m0 0" horiz-adv-x="1000" />

<glyph glyph-name="cup" unicode="&#xe821;" d="M0 676c19-173 111-326 246-410 25-40 65-69 112-80v-14c0-22 11-40 27-51v-98h-99c-33 0-60-27-60-60v-12h-17c-22 0-39-18-39-39v-24c0-21 17-38 39-38h192c8 0 15 7 15 15 0 8-7 14-15 14h-192c-5 0-10 4-10 9v24c0 5 5 9 10 9h453c5 0 9-4 9-9v-24c0-5-4-9-9-9h-192c-8 0-15-6-15-14 0-8 7-15 15-15h192c21 0 39 17 39 38v24c0 21-18 39-39 39h-18v12c0 33-26 60-60 60h-98v98c16 11 27 29 27 51v14c49 11 90 43 115 86 127 82 218 229 237 404 5 44-30 83-74 83h-104c8 7 14 17 14 29v24c0 21-18 38-39 38h-453c-22 0-39-17-39-38v-24c0-12 5-22 14-29h-109c-45 0-79-39-75-83z m30 3c-3 27 18 50 45 50h129l1-30h-130c-9 0-15-7-15-15 0 0 0-1 0-1 14-134 74-247 159-322 0-11 0-11 0-11 1-12 3-23 5-33-107 82-178 214-194 362z m187-276c-68 69-112 162-126 267h115z m398-440v-12h-359v12c0 17 14 31 30 31h298c17 0 31-14 31-31z m-159 147v-87h-42v87c2 0 4 0 6 0h31c2 0 4 0 5 0z m27 62c0-19-15-33-32-33h-31c-18 0-32 14-32 33v10c4-1 8-1 11-1h73c3 0 7 0 11 1z m-11 39h-73c-83 0-148 65-151 145 0 2-16 391-16 393h407c-1-11-5-117-7-170-1-8 6-15 14-15 8 0 15 6 15 14l4 92h110c-14-102-56-193-121-262l4 102c1 8-6 15-14 15-8 0-15-6-15-14l-6-155c-4-82-70-145-151-145z m364 468c-15-144-85-274-188-357 3 17 4 28 4 43 86 79 141 191 154 318 1 8-6 16-15 16h-125l1 30h124c26 0 48-22 45-50z m-637 133c0 5 5 9 10 9h453c5 0 9-4 9-9v-24c0-5-4-9-9-9-35 0-444 0-453 0-5 0-10 4-10 9z m0 0" horiz-adv-x="1000" />

<glyph glyph-name="diamond" unicode="&#xe822;" d="M903 780c-6-6-6-15 0-21 6-5 15-5 21 1l47 48c6 6 5 15 0 21-6 5-16 5-21 0z m0 0m68-322c5 6 6 15 0 21l-47 48c-6 6-15 6-21 0-6-5-6-15 0-20l47-49c6-5 15-6 21 0z m0 0m-45 185c0-8 6-14 14-14h47c8 0 15 6 15 14 0 9-7 15-15 15h-47c-8 0-14-6-14-15z m0 0m-848 117c6-6 15-6 21-1s6 15 0 21l-47 49c-5 5-15 5-21 0-5-6-5-15 0-21z m0 0m0-233l-47-48c-5-6-5-15 0-21 6-6 16-5 21 0l47 49c6 5 6 15 0 20s-15 6-21 0z m0 0m-63 102h47c8 0 14 6 14 14 0 9-6 15-14 15h-47c-8 0-15-6-15-15 0-8 7-14 15-14z m0 0m97 5l359-441c7-9 18-14 30-14 12 0 23 5 30 14 0 0 0 0 0 0l196 240c5 7 4 16-2 21-7 5-16 4-21-2l-156-192 83 369h217l-101-124c-5-6-4-16 2-21 7-5 16-4 21 2l120 148c5 6 4 15-1 20l-177 179c-11 11-25 16-38 16h-38c-8 0-14-7-14-15s6-14 14-14h32l-52-142-82 142h34c8 0 14 6 14 14s-6 15-14 15c-56 0-181 0-240 0-14 0-28-6-38-16l-177-179c-5-5-6-14-1-20z m195 174l55-150h-203z m64-179l83-369-300 369z m136-419c-4-3-9-3-12 0l-94 419h200z m188 598l149-150h-204z m-287-150l93 160 93-160z m-22 20l-52 142h134z m0 0" horiz-adv-x="1000" />

<glyph glyph-name="document" unicode="&#xe823;" d="M558 569h-278c-8 0-15-7-15-15 0-8 7-14 15-14h278c8 0 14 6 14 14 0 8-6 15-14 15z m0 0m0-72h-278c-8 0-15-7-15-15 0-8 7-14 15-14h278c8 0 14 6 14 14 0 8-6 15-14 15z m0 0m-205 115h147c8 0 15 6 15 14s-7 15-15 15h-147c-8 0-14-6-14-15s6-14 14-14z m0 0m205-187h-278c-8 0-15-7-15-15 0-8 7-15 15-15h278c8 0 14 7 14 15 0 8-6 15-14 15z m0 0m0-72h-278c-8 0-15-7-15-15 0-8 7-15 15-15h278c8 0 14 7 14 15 0 8-6 15-14 15z m0 0m318 89v348c0 33-26 59-59 59h-632c-33 0-59-26-59-59v-348l-115-174c-7-7-11-17-11-27v-348c0-22 18-40 40-40h922c22 0 40 18 40 40v140c0 8-7 14-15 14-8 0-14-6-14-14v-140c0-6-5-10-11-10h-136v11c0 22-18 40-40 40h-251c-8 0-14-6-14-14 0-9 6-15 14-15h251c6 0 10-5 10-11v-11h-590v11c0 6 4 11 10 11h251c8 0 14 6 14 15 0 8-6 14-14 14h-251c-22 0-40-18-40-40v-11h-136c-6 0-11 4-11 10v348c0 6 6 10 11 10h922c6 0 11-4 11-10v-140c0-8 6-14 14-14 8 0 15 6 15 14v140c0 10-4 20-11 27z m-70 286c-27 0-48 23-46 50 1 11-8 21-19 21h-30c-1 7-4 14-7 21h113c17 0 30-13 30-30v-509h-21v428c0 10-9 19-20 19 0 0 0 0 0 0m-680-340v-107h-71z m516 340c-26 0-46 21-46 46 0 1 0 2 0 4 1 11-8 21-20 21h-315c-11 0-20-10-19-21 0-2 0-3 0-4 0-25-21-46-46-46 0 0 0 0 0 0-5 0-10-2-14-6-4-3-6-8-6-13v-428h-21c0 14 0 485 0 509 0 17 14 30 30 30h468c16 0 29-13 29-30v-509h-21v428c0 5-2 10-6 13s-8 6-13 6c0 0 0 0 0 0m-436-447v418c35 5 63 34 65 70h296c2-36 29-65 65-70v-418z m506 0v488h19c2-36 30-65 65-70v-418z m164 0v107l72-107z m0 0m-192-95c-18 0-32-15-32-32v-129c0-18 14-32 32-32h191c18 0 32 14 32 32v129c0 17-14 32-32 32z m194-32v-129c0-2-1-3-3-3h-191c-2 0-3 1-3 3v129c0 1 1 3 3 3h191c2 0 3-2 3-3z m0 0m-41-23h-115c-8 0-14-6-14-15 0-8 6-14 14-14h115c8 0 14 6 14 14 0 9-6 15-14 15z m0 0m0-54h-115c-8 0-14-7-14-15 0-8 6-15 14-15h115c8 0 14 7 14 15 0 8-6 15-14 15z m0 0" horiz-adv-x="1000" />

<glyph glyph-name="exam" unicode="&#xe824;" d="M363 850c-36 0-66-29-66-65v-15h-49c-12 0-22-6-27-15h-151c-39 0-70-32-70-70v-765c0-39 31-70 70-70h259c8 0 14 7 14 15 0 8-6 14-14 14h-259c-22 0-41 19-41 41v765c0 22 19 40 41 40h147v-32h-136c-11 0-19-9-19-19v-743c0-11 8-20 19-20h563c11 0 20 9 20 20v47l32-32v-26c0-22-18-41-41-41h-258c-8 0-15-6-15-14 0-8 7-15 15-15h258c38 0 69 30 70 67l38-38c14-14 38-14 52 0l19 18c14 15 14 39 0 53l-109 109v207c0 8-6 15-14 15-8 0-15-7-15-15v-178l-2 2c-7 7-17 11-27 11l-3 4v96c4 18 7 36 7 54 0 18-3 36-7 54v365c0 10-9 19-20 19h-136v32h147c23 0 41-18 41-40v-350c0-8 7-15 15-15 8 0 14 7 14 15v350c0 38-31 70-70 70h-151c-5 9-15 15-26 15h-50v15c0 36-29 65-65 65z m-36-65c0 20 16 36 36 36s36-16 36-36v-15h-72z m1-400c35 34 81 53 130 53 103 0 183-83 183-183 0-102-82-183-183-183-163 0-245 197-130 313z m287-273c0 0 0 0 0 0l24-24-14-14-24 24c0 0 0 0 0 0 5 4 10 9 14 14z m198-182c3-4 3-9 0-12l-18-18c-3-3-9-3-12 0l-62 62c0 0 0 0 0 0l-78 78c-3 3-3 8 0 11l18 19c3 2 8 3 12 0z m-178 444c-39 57-104 94-177 94-33 0-66-8-95-22 0 0 0 0 0 0h-198c-8 0-14-7-14-15 0-8 6-15 14-15h154c-13-11-25-24-36-40h-118c-8 0-14-6-14-14 0-8 6-15 14-15h101c-6-13-11-26-14-40h-87c-8 0-14-6-14-14 0-9 6-15 14-15h81c0-8-1-15-1-23 0-6 1-11 1-17h-81c-8 0-14-7-14-15 0-8 6-14 14-14h85c3-14 8-27 13-40h-98c-8 0-14-7-14-15 0-8 6-15 14-15h114c10-15 21-28 34-40h-148c-8 0-14-6-14-14 0-8 6-15 14-15h187c32-18 67-27 104-28h0c1 0 1 0 2 0 44 0 85 13 120 37l34-33c0-10 4-20 11-27l12-12v-66h-544v723h127c2-14 15-25 30-25h230c14 0 27 11 30 25h127z m-156 366c0 0 0 0 0 0v-71c0 0 0 0-1 0 0 0 0 0 0 0h-230c-1 0-1 0-1 0 0 0 0 0 0 0 0 41 0 31 0 71 0 0 0 0 0 0 0 0 0 1 1 1h230c0 0 1-1 1-1z m0 0m-328-240c0-8 6-14 14-14h395c8 0 15 6 15 14 0 8-7 15-15 15h-395c-8 0-14-7-14-15z m0 0m113 55h197c9 0 15 6 15 14 0 9-6 15-15 15h-197c-8 0-15-6-15-15 0-8 7-14 15-14z m0 0m-99-554h395c8 0 15 6 15 15 0 8-7 14-15 14h-395c-8 0-14-6-14-14 0-9 6-15 14-15z m0 0m112 704c0-8 6-15 15-15h142c8 0 14 7 14 15 0 8-6 14-14 14h-142c-9 0-15-6-15-14z m0 0m288-343c-29 29-67 44-107 44-134 0-202-163-107-258 29-29 67-44 107-44 134 0 202 163 107 258z m-107 15c33 0 63-13 86-36 77-76 22-208-86-208-33 0-63 13-86 36-77 76-22 208 86 208z m0 0" horiz-adv-x="1000" />

<glyph glyph-name="exchanging" unicode="&#xe825;" d="M36 106h401c20 0 36 16 36 36 0 117 0 110 0 114-3 59-54 80-56 81 0 0 0 0 0 0l-118 46v23c18 14 31 36 35 60 25 4 41 24 41 47 0 11-3 21-10 29v36c0 72-58 130-130 130-71 0-129-58-129-130v-37c-7-8-10-18-10-28 0-23 17-44 41-47 4-25 17-47 37-62v-21c-12-5-103-40-118-46 0 0 0 0 0 0-2-1-56-24-56-86v-109c0-20 16-36 36-36z m300 390v33c6-3 10-9 10-16 0-7-4-13-10-17z m-201 82c0 55 45 100 100 100 56 0 101-45 101-100v-18c0 0 0 0 0 0-1 5-4 9-8 13-4 5-12 14-25 28-8 8-20 9-29 3-35-23-77-33-115-31-9 1-19-5-22-14-1 0-1 0-2 0z m-10-65c0 7 4 12 10 15v-32c-6 4-10 10-10 17z m39-31c0 1 0 61 0 62 40-1 84 10 121 33 11-12 18-20 21-23 0-1 0-72 0-72-1-41-33-69-69-69-44 0-72 33-73 69z m73-99c11 0 22 2 33 6v-9c0-9 5-18 13-22-13-13-30-20-48-20-17 0-34 7-46 19 8 5 14 14 14 24v8c11-4 22-6 34-6z m-208-132c0 29 20 51 38 59l92 36 6-7c19-20 44-30 70-30 27 0 52 10 71 30l6 7 94-36c18-8 38-29 38-59v-109c0-3-3-6-7-6h-44v96c0 8-6 15-15 15-8 0-14-7-14-15v-96h-255v96c0 8-6 15-14 15-8 0-15-7-15-15v-96h-44c-4 0-7 3-7 6z m0 0m594 554l-70 42c-12 8-28-2-28-17v-7h-126c-19 0-35-16-35-35s16-35 35-35h126v-7c0-16 16-25 28-18l70 43c12 7 12 26 0 34z m-69-42v5c0 8-6 14-14 14h-141c-3 0-6 3-6 6 0 3 3 5 6 5h141c8 0 14 7 14 15v4l41-24z m0 0m43-96h-42c-8 0-14-7-14-15 0-8 6-15 14-15h42c19 0 35 16 35 35 0 19-16 35-35 35h-126v7c0 16-16 25-29 18l-69-43c-12-7-12-27 0-34l69-42c13-8 29 1 29 17v7h16c8 0 15 7 15 15 0 8-7 15-15 15h-31c-8 0-14-7-14-15v-5l-41 25 41 25v-5c0-8 6-14 14-14h141c3 0 6-3 6-6 0-3-3-5-6-5z m0 0m347-330c0 0 0 0 0 0l-91 35-27 11v23c18 14 31 36 35 60 25 4 41 24 41 47 0 11-3 21-10 29v36c0 72-58 130-129 130-72 0-130-58-130-130v-37c-7-8-10-18-10-28 0-23 17-44 41-47 4-25 17-47 37-62v-21l-118-46c0 0 0 0 0 0 0 0 0 0-1 0-8-4-55-28-55-86v-109c0-20 16-36 36-36h401c20 0 36 16 36 36v32c0 8-7 14-15 14s-14-6-14-14v-32c0-3-3-6-7-6h-44v96c0 8-6 15-15 15-8 0-14-7-14-15v-96h-255v96c0 8-6 15-14 15-8 0-15-7-15-15v-96h-44c-4 0-7 3-7 6v109c0 40 33 56 38 59 0 0 0 0 0 0l92 36 6-7c19-20 44-30 71-30s51 10 70 30l6 7 94-36c19-9 38-30 38-59v-9c0-8 6-14 14-14s15 6 15 14v9c0 62-54 85-56 86z m-81 159v33c6-3 10-9 10-16 0-7-4-13-10-17z m-201 82c0 55 45 100 101 100s100-45 100-100v-18c0 0 0 0 0 0-1 5-4 9-8 13-4 5-10 12-25 28-8 8-20 9-29 3-34-22-76-33-115-31-10 1-19-5-22-14-1 0-1 0-2 0z m-10-65c0 7 4 12 10 15v-32c-6 4-10 10-10 17z m40-31c0 0 0 0 0 0v62c40-2 83 10 120 33 11-12 18-20 21-23v-72c0-39-31-69-69-69-45 0-72 34-72 69z m24-125c8 5 14 14 14 24v8c11-4 22-6 34-6 11 0 22 2 33 6v-9c0-9 5-18 13-22-26-27-68-27-94-1z m0 0" horiz-adv-x="1000" />

<glyph glyph-name="hourglass" unicode="&#xe826;" d="M206 216c-37-17-65-25-85-53-14-20-23-51-27-92-1-9 6-16 14-16h455c9 0 15 7 15 16-4 41-13 72-28 92-19 28-48 36-85 53-2 1-5 2-8 2h-242c-3 0-6-1-9-2z m249-27c35-17 58-23 72-43 9-13 16-34 20-62h-422c4 28 10 49 20 62 14 20 36 26 72 43z m0 0m-268 304c20-9 42-19 63-34 27-20 49-43 64-67 0 0 1 0 1 0 4-7 12-11 21-11h0c8 0 16 4 21 11l0 0c16 24 37 47 65 67 21 15 43 25 62 34l0 0c0 0 1 0 1 0 19 8 13 38-8 38h-282c-23 0-27-31-8-38m149-80c-24 36-62 69-100 89h199c-37-20-75-53-99-89z m0 0m-293-378h-5c-21 0-38-17-38-38v-56c0-21 17-38 38-38h5v-15c0-21 17-38 38-38h510c21 0 38 17 38 38v15h4c21 0 38 17 38 38v56c0 21-17 38-38 38h-5c-5 249-137 176-223 290-5 6-14 7-21 3-6-5-7-15-3-21 97-128 213-41 218-272h-527c4 195 90 166 166 222 26 19 46 39 60 61 12 20 12 44 0 64-14 22-34 42-60 61-76 56-162 27-166 222h527c-5-231-121-144-218-272-4-6-3-16 3-20 7-5 16-4 21 2 34 46 77 63 99 73 60 26 121 53 124 217h5c21 0 38 17 38 38v56c0 21-17 38-38 38h-4v15c0 21-17 38-38 38h-221c-8 0-15-7-15-15s7-14 15-14h221c4 0 8-4 8-9v-15h-527v15c0 5 4 9 9 9h221c8 0 14 6 14 14s-6 15-14 15h-221c-21 0-38-17-38-38v-15h-5c-21 0-38-17-38-38v-56c0-21 17-38 38-38h5c5-257 148-172 230-299 7-10 7-22 0-32-82-127-225-41-230-299z m556-147c0-5-4-9-8-9h-510c-5 0-9 4-9 9v15h527z m34 118c5 0 9-4 9-9v-56c0-5-4-9-9-9-12 0-587 0-595 0-5 0-9 4-9 9v56c0 5 4 9 9 9z m-604 697v56c0 5 4 9 9 9h595c5 0 9-4 9-9v-56c0-5-4-9-9-9-12 0-587 0-595 0-5 0-9 4-9 9z m0 0" horiz-adv-x="1000" />

<glyph glyph-name="idea" unicode="&#xe827;" d="M855 617c3 0 7 1 10 4l47 49c6 6 6 15 0 20-6 6-15 6-21 0l-47-48c-9-10-2-25 11-25z m0 0m10-230c-5 6-15 6-21 0-5-5-5-15 0-20l47-49c6-6 15-6 21 0s6 15 0 20z m0 0m53 132h-47c-8 0-15-7-15-15 0-8 7-15 15-15h47c8 0 15 7 15 15 0 8-7 15-15 15z m0 0m-897 171c-6-5-6-14 0-20l47-49c6-6 15-6 21 0s6 15 0 21l-47 48c-6 6-15 6-21 0z m0 0m68-303c-6 6-15 6-21 0l-47-49c-6-5-6-15 0-20s15-6 21 0l47 49c6 5 5 15 0 20z m0 0m-12 117c0 8-7 15-15 15h-47c-8 0-15-7-15-15 0-8 7-15 15-15h47c8 0 15 7 15 15z m0 0m394 317c160-2 293-125 308-284 1-8 8-14 16-13 8 0 14 8 14 16-17 173-162 308-338 310-189 3-346-147-348-340-1-94 35-182 101-248 55-54 69-108 93-179-12-8-21-21-21-37v-13c0-11 5-21 11-28-6-8-11-18-11-29v-13c0-24 20-43 44-43h26v-27c0-24 20-43 43-43h115c24 0 43 19 43 43v27h26c24 0 44 19 44 43v13c0 11-4 21-11 29 7 7 11 17 11 28v13c0 16-8 29-21 37 25 72 38 125 93 180 55 55 91 128 99 205 1 8-5 16-13 16-8 1-15-4-16-13-8-70-40-137-91-187-60-61-74-119-100-195h-21v11c0 22-17 39-39 40 2 81 16 140 22 163h14c24 0 44 19 44 43v13c0 24-20 43-44 43h-63c-8 0-15-6-15-15s7-14 15-14h63c8 0 14-6 14-14v-13c0-8-6-14-14-14h-195c-8 0-14 6-14 14v13c0 8 6 14 14 14h63c8 0 15 6 15 14s-7 15-15 15h-63c-24 0-44-19-44-43v-13c0-24 20-43 44-43h14c6-23 20-82 22-163-22-1-39-18-39-40v-11h-21c-25 76-40 135-100 194-61 60-94 141-93 226 2 175 143 314 319 312z m67-928c0-8-7-14-14-14h-115c-7 0-14 6-14 14v27h143z m69 70c0-8-6-14-14-14-8 0-245 0-253 0-8 0-14 6-14 14v13c0 8 6 14 14 14h253c8 0 14-6 14-14z m-87 340c-8-28-20-86-21-163h-65c-1 77-13 135-21 163z m-125-203c0 6 5 11 12 11h119c7 0 12-5 12-11v-11h-143z m199-40c7 0 13-6 13-14v-13c0-7-6-14-14-14h-253c-8 0-14 7-14 14v13c0 8 6 14 14 14 3 0 254 0 254 0z m0 0" horiz-adv-x="1000" />

<glyph glyph-name="law" unicode="&#xe828;" d="M961 387h-9l-100 212c12 10 19 24 19 40 0 30-24 54-54 54-23 0-43-14-50-35-18 2-35 6-51 10l-145 40c1 24-10 47-29 61v47c0 19-15 34-34 34h-18c-19 0-34-15-34-34v-47c-19-14-30-37-29-61l-143-40c-16-4-33-8-50-10-8 21-28 35-51 35-30 0-54-24-54-54 0-16 7-30 19-40l-100-212h-9c-21 0-39-17-39-39v-9c0-22 18-40 39-40 15-63 72-110 138-110s124 47 138 110h12c21 0 39 18 39 40v9c0 22-18 39-39 39h-8l-100 212c8 7 15 18 17 30 19 2 38 6 56 11l143 39c5-9 12-18 21-24v-572h-68c-21 0-39-17-39-39v-20c-18-3-32-19-32-39v-9c0-22 17-40 39-40h109c8 0 15 7 15 15 0 8-7 15-15 15h-109c-6 0-10 4-10 10v9c0 6 4 10 10 10h287c6 0 10-4 10-10v-9c0-6-4-10-10-10h-110c-8 0-14-7-14-15 0-8 6-15 14-15h110c22 0 40 18 40 40v9c0 20-15 36-34 39v20c0 22-17 39-39 39h-68v226c0 8-6 15-14 15-8 0-15-7-15-15v-226h-28v558c9-2 19-2 28 0v-263c0-9 7-15 15-15 8 0 14 6 14 15v277c9 6 16 15 21 25l145-40c18-5 37-9 56-11 2-12 9-23 18-30l-100-212h-9c-21 0-39-17-39-39v-9c0-22 18-40 39-40h12c15-63 72-110 138-110s123 47 138 110c21 0 39 18 39 40v9c0 22-18 39-39 39z m-778 277c14 0 25-11 25-25 0-14-12-24-25-24-13 0-25 10-25 24 0 14 12 25 25 25z m-6-445c-50 0-94 33-107 80h215c-14-47-58-80-108-80z m160 129v-9c0-6-5-10-10-10-9 0-269 0-288 0-5 0-10 4-10 10v9c0 6 5 10 10 10h288c5 0 10-4 10-10z m-51 39h-206l94 199c6-1 13-1 18 0z m324-333c5 0 10-4 10-10v-19h-242v19c0 6 5 10 10 10z m-111 615c-23 0-42 19-42 43 0 23 19 42 42 42 44 0 59-58 21-79-7-4-14-6-21-6z m-14 147c0 2 2 5 5 5h18c3 0 5-3 5-5v-34c-9 2-19 2-28 0z m332-152c14 0 25-11 25-25 0-14-12-24-25-24-13 0-25 10-25 24 0 14 11 25 25 25z m-9-78c6-1 12-1 18 0l94-199h-206z m15-367c-50 0-94 33-108 80h216c-14-47-58-80-108-80z m148 120c0-6-5-10-10-10-9 0-267 0-288 0-5 0-10 4-10 10v9c0 6 5 10 10 10h288c5 0 10-4 10-10z m0 0" horiz-adv-x="1000" />

<glyph glyph-name="management-1" unicode="&#xe829;" d="M1-57v-70c0-14 11-25 25-25h164c14 0 25 11 25 25v70c0 33-22 62-52 71 10 13 16 28 16 46 0 34-24 62-56 69v49c0 0 0 1 1 1h309v-50c-32-7-56-35-56-69 0-18 6-33 16-46-30-9-52-38-52-71v-70c0-14 11-25 25-25h164c14 0 25 11 25 25v13c0 8-7 15-15 15-8 0-15-7-15-15v-8h-16v67c0 8-7 15-15 15-8 0-15-7-15-15v-67h-62v67c0 8-7 15-15 15-8 0-14-7-14-15v-67h-17v65c0 25 20 45 45 45h64c22 0 40-15 45-36 1-8 9-13 17-12 8 2 13 10 12 18-6 27-26 48-51 56 10 13 16 28 16 46 0 34-24 62-56 69v50h309c1 0 1-1 1-1v-49c-32-7-56-35-56-69 0-18 6-33 16-46-30-9-52-38-52-71v-70c0-14 12-25 25-25h164c14 0 25 11 25 25v70c0 33-22 62-52 71 10 13 16 28 16 46 0 34-24 62-56 69v49c0 17-14 31-31 31h-309v49h186c20 0 36 16 36 36v107c0 63-53 85-55 86-1 0-1 0-1 0l-116 45v23c18 15 30 36 35 60 24 3 40 24 40 46 0 11-3 22-10 30v35c0 57-37 107-91 123-8 3-16-2-19-9-2-8 2-16 10-19 42-13 71-51 71-95v-16c-1 5-5 9-9 13-4 4-12 14-24 26-3 3-7 6-12 7-6 1-12 0-17-4-4-3-9-6-14-8-31-17-66-25-99-22-10 1-19-5-23-14 0 0-1 0-1 0v18c0 43 27 81 68 95 8 2 12 10 10 18-3 8-11 12-19 10-53-18-88-67-88-123v-36c-7-8-11-18-11-29 0-23 17-43 41-46 4-25 18-47 37-62v-21l-117-45c0 0 0 0 0 0 0 0 0 0-1 0-8-4-55-27-55-86v-107c0-20 17-36 36-36h182v-49h-309c-17 0-31-14-31-31v-49c-32-7-56-35-56-69 0-18 6-33 16-46-30-9-52-38-52-71z m489 117c0-23-19-42-42-42-23 0-41 19-41 42s18 41 41 41c23 0 42-19 42-41z m376-117v-66h-17v68c0 8-7 15-15 15-8 0-15-7-15-15v-68h-62v68c0 8-6 15-15 15-8 0-14-7-14-15v-68h-17v66c0 25 20 45 45 45h64c25 0 46-20 46-45z m-36 117c0-23-19-42-42-42-23 0-41 19-41 42s18 41 41 41c23 0 42-19 42-41z m-379 502c-44 0-72 34-72 69v61c41-1 84 11 120 33 11-12 17-19 20-23v-71c0-38-30-69-68-69z m98 84v31c6-3 10-9 10-16 0-6-4-12-10-15z m-209 15c0 7 4 12 10 15v-30c-7 3-10 9-10 15z m111-128c11 0 22 2 32 5v-8c0-9 5-18 13-22-26-26-67-27-93-1 9 4 14 14 14 23v8c11-4 22-5 34-5z m-206-239v107c0 42 35 58 37 59 100 39 52 20 92 35l5-6c39-41 102-41 140 0l7 7c59-23 38-15 92-36 21-9 38-32 38-59v-107c0-4-3-7-7-7h-43v96c0 8-7 15-15 15-8 0-15-7-15-15v-96h-252v96c0 8-6 15-14 15s-15-7-15-15v-96h-44c-3 0-6 3-6 7z m-137-193c23 0 41-19 41-41s-18-42-41-42c-23 0-42 19-42 42s19 41 42 41z m-77-158c0 25 20 45 45 45h64c25 0 45-20 45-45v-66h-17v68c0 8-6 15-14 15-8 0-15-7-15-15v-68h-62v68c0 8-7 15-15 15-8 0-15-7-15-15v-68h-16z m0 0" horiz-adv-x="1000" />

<glyph glyph-name="management-2" unicode="&#xe82a;" d="M65 26h120c8 0 15 6 15 14 0 8-7 15-15 15h-120c-8 0-14-7-14-15 0-8 6-14 14-14z m0 0m0-57h120c8 0 15 7 15 15s-7 15-15 15h-120c-8 0-14-7-14-15s6-15 14-15z m0 0m0-56h120c8 0 15 7 15 15 0 8-7 15-15 15h-120c-8 0-14-7-14-15 0-8 6-15 14-15z m0 0m344 113h120c8 0 14 6 14 14 0 8-6 15-14 15h-120c-8 0-15-7-15-15 0-8 7-14 15-14z m0 0m0-57h120c8 0 14 7 14 15s-6 15-14 15h-120c-8 0-15-7-15-15s7-15 15-15z m0 0m0-56h120c8 0 14 7 14 15 0 8-6 15-14 15h-120c-8 0-15-7-15-15 0-8 7-15 15-15z m0 0m343 113h120c8 0 15 6 15 14 0 8-7 15-15 15h-120c-8 0-14-7-14-15 0-8 6-14 14-14z m0 0m0-57h120c8 0 15 7 15 15s-7 15-15 15h-120c-8 0-14-7-14-15s6-15 14-15z m0 0m0-56h120c8 0 15 7 15 15 0 8-7 15-15 15h-120c-8 0-14-7-14-15 0-8 6-15 14-15z m0 0m-27 205c-21 0-38-17-38-38v-192c0-21 17-38 38-38h174c21 0 39 17 39 38v192c0 21-18 38-39 38h-72v48c0 17-14 31-31 31h-313v50h189c20 0 36 16 36 36v32c0 8-6 15-15 15-8 0-14-7-14-15v-32c0-3-3-6-7-6h-44v97c0 8-7 14-15 14s-14-6-14-14v-97h-256v97c0 8-6 14-14 14-8 0-15-6-15-14v-97h-44c-4 0-7 3-7 6v109c0 28 17 50 38 59l93 36 6-6c18-20 43-31 70-31s52 11 70 31l7 7c105-41 132-41 132-105 0-8 6-14 14-14 9 0 15 6 15 14v9c0 63-54 86-56 87 0 0 0 0 0 0l-104 40h0l-14 5v23c18 15 31 37 35 61 25 3 41 24 41 47 0 11-4 21-10 29v36c0 72-58 130-130 130-72 0-130-58-130-130v-36c-7-9-10-19-10-29 0-23 17-44 41-47 4-26 18-47 37-62v-22c-66-25-51-19-118-45 0 0 0 0 0 0-2-1-56-24-56-87v-109c0-20 16-36 36-36h184v-50h-312c-18 0-31-14-31-31v-48h-73c-21 0-38-17-38-38v-192c0-21 17-38 38-38h174c21 0 38 17 38 38v192c0 21-17 38-38 38h-72v48c0 1 1 2 2 2h312v-50h-72c-21 0-38-17-38-38v-192c0-21 17-38 38-38h53c8 0 14 7 14 15 0 8-6 14-14 14h-53c-5 0-9 4-9 9v192c0 5 4 9 9 9h174c5 0 9-4 9-9v-192c0-5-4-9-9-9h-53c-8 0-15-6-15-14 0-8 7-15 15-15h53c21 0 38 17 38 38v192c0 21-17 38-38 38h-73v50h313c1 0 2-1 2-2v-48z m-155 520v33c7-3 11-9 11-16 0-7-4-14-11-17z m-200 82c0 56 45 101 100 101 55 0 100-45 100-101v-18c0 0 0 0 0 0 0 3-1 6-5 12-5 5-11 11-28 29 0 0 0 0 0 0-7 8-19 10-28 3-35-22-77-33-115-30-10 0-19-5-23-14 0-1-1-1-1-1z m-11-65c0 7 5 12 11 15v-32c-7 3-11 10-11 17z m40-31v62c39-1 83 9 121 33 11-12 18-19 21-23v-72c0-38-31-70-70-70h0c-43 0-72 34-72 70z m72-99h0c11 0 23 2 33 6v-9c0-9 6-18 14-23-13-13-30-20-48-20-18 0-34 7-47 20 9 4 15 14 15 24v7c11-3 22-5 33-5z m-250-445v-192c0-5-4-9-9-9h-174c-5 0-9 4-9 9v192c0 5 4 9 9 9h174c5 0 9-4 9-9z m687 0v-192c0-5-4-9-9-9h-174c-4 0-9 4-9 9v192c0 5 5 9 9 9h174c5 0 9-4 9-9z m0 0" horiz-adv-x="1000" />

<glyph glyph-name="management" unicode="&#xe82b;" d="M972 211h-106v106c0 15-13 28-28 28h-323v85h208c22 0 39 17 39 39v136c0 8-6 15-14 15-8 0-15-7-15-15v-136c0-5-5-10-10-10h-446c-5 0-10 5-10 10v341c0 5 5 10 10 10h446c5 0 10-5 10-10v-136c0-9 7-15 15-15s14 6 14 15v136c0 21-17 39-39 39h-446c-22 0-39-18-39-39v-341c0-22 17-39 39-39h208v-85h-323c-15 0-27-13-27-28v-106h-107c-15 0-28-12-28-28v-185c0-15 13-28 28-28h242c16 0 28 13 28 28v185c0 16-12 28-28 28h-106v105h321v-105h-106c-16 0-28-12-28-28v-185c0-15 12-28 28-28h87c8 0 15 7 15 15s-7 14-15 14h-86v183h240v-183h-86c-8 0-14-6-14-14s6-15 14-15h87c16 0 28 13 28 28v185c0 16-12 28-28 28h-106v105h321v-105h-106c-16 0-28-12-28-28v-185c0-15 12-28 28-28h242c15 0 28 13 28 28v185c0 16-13 28-28 28z m-703-212h-240v183h240z m702 0h-240v183h240z m0 0m-302 756h-338c-8 0-15-6-15-14 0-8 7-15 15-15h338c8 0 15 7 15 15 0 8-7 14-15 14z m0 0m0-67h-338c-8 0-15-7-15-15 0-8 7-14 15-14h338c8 0 15 6 15 14 0 8-7 15-15 15z m0 0m0-68h-338c-8 0-15-6-15-14 0-8 7-15 15-15h338c8 0 15 7 15 15 0 8-7 14-15 14z m0 0m0-67h-338c-8 0-15-7-15-15 0-8 7-15 15-15h338c8 0 15 7 15 15 0 8-7 15-15 15z m0 0m155-455c-6 5-15 6-21 0-6-6-6-15 0-21l19-20c6-6 15-6 21-1l56 55c6 6 6 15 0 21-6 5-15 6-21 0l-45-44z m0 0m-276 13c6 6 6 15 0 21-5 5-15 6-20 0l-46-44-9 10c-6 5-15 6-21 0-6-6-6-15 0-21l19-20c6-6 15-6 21-1z m0 0m-426-13c-5 5-15 6-21 0-5-6-6-15 0-21l19-20c6-6 16-6 21-1l56 55c6 6 6 15 0 21-5 5-15 6-20 0l-45-44z m0 0" horiz-adv-x="1000" />

<glyph glyph-name="megaphone" unicode="&#xe82c;" d="M985 465h-55c-8 0-14-7-14-15 0-8 6-14 14-14h55c8 0 15 6 15 14 0 8-7 15-15 15z m0 0m-8 65c8 1 13 9 12 17-2 8-9 13-17 12l-55-10c-8-2-13-9-11-17 1-7 7-12 14-12 2 0-1-1 57 10z m0 0m-40 124l-48-26c-7-4-10-13-6-20 4-7 12-10 20-6l48 26c7 4 10 13 6 20s-12 10-20 6z m0 0m52-300c1 8-4 16-12 17l-54 10c-8 1-16-4-17-12-2-8 3-15 11-17l55-10c7-1 15 4 17 12z m0 0m-86-55c-7 3-16 1-20-6-4-8-1-16 6-20l48-26c8-4 16-1 20 6 4 7 1 16-6 20z m0 0m-903 213v-123c0-56 46-102 102-102h6l55-352c5-31 34-52 64-47l23 4c31 5 52 33 47 64l-52 331h58l457-202c4-20 21-34 41-34h15c23 0 42 18 42 41v324c0 8-7 15-15 15s-15-7-15-15v-324c0-6-5-12-12-12h-15c-7 0-12 6-12 12v716c0 7 5 13 12 13h15c7 0 12-6 12-13v-323c0-9 7-15 15-15s15 6 15 15v323c0 23-19 42-42 42h-15c-20 0-37-15-41-34l-457-202h-109c-8 0-14-7-14-15 0-8 6-14 14-14h28v-269h-120c-40 0-73 33-73 73v123c0 40 33 73 73 73h24c8 0 15 6 15 14 0 8-7 15-15 15h-24c-56 0-102-46-102-102z m321 78l369 163v-605l-369 163z m438 194v-667l-39 18v631z m-468-199v-269h-39v269z m-76-298l53-336c2-14-8-28-22-30l-23-4c-15-2-29 8-31 22l-55 348z m0 0" horiz-adv-x="1000" />

<glyph glyph-name="mission" unicode="&#xe82d;" d="M597 849c-8 0-14-6-14-15v-369c-5-3-10-6-14-11l-177-229-71 92c-12 15-35 15-47 0l-268-347c-15-21-1-50 25-50h532c8 0 15 7 15 15s-7 15-15 15h-346c1 0 187 242 187 242l189 244c2 3 7 3 9 0l370-479c2-3 0-7-4-7h-336c-9 0-15-7-15-15s6-15 15-15h336c28 0 44 32 27 55l-370 479c-3 5-8 8-13 11v164h51c8 0 14 7 14 15 0 8-6 14-14 14h-51v137h192l-48-52c-9-9-9-24 0-33l48-52h-73c-8 0-15-6-15-14 0-8 7-15 15-15h84c21 0 32 26 18 41l-53 56 53 57c14 15 3 41-18 41h-203v10c0 8-7 15-15 15z m-567-897l267 347c1 0 1 0 1 0s0 0 0 0l76-98-194-251h-149c-1 0-2 1-1 2z m0 0" horiz-adv-x="1000" />

<glyph glyph-name="network" unicode="&#xe82e;" d="M332 319v-68c0-14 11-25 25-25h160c13 0 24 11 24 25v68c0 33-21 60-50 70 10 12 15 27 15 44 0 38-31 70-69 70-39 0-70-32-70-70 0-17 6-32 16-44-30-10-51-37-51-70z m105 154c22 0 40-18 40-40 0-22-18-40-40-40-22 0-40 18-40 40 0 22 18 40 40 40z m-75-154c0 24 19 44 44 44h62c24 0 44-20 44-44v-63h-16v65c0 8-6 15-15 15-8 0-14-7-14-15v-65h-60v65c0 8-7 15-15 15s-15-7-15-15v-65h-15z m0 0m-30 359v-46c0-13 11-25 25-25h160c13 0 24 12 24 25v46c0 33-21 60-50 70 10 12 15 27 15 44 0 22-9 42-26 55-7 5-16 4-21-3-5-6-4-15 2-21 10-7 16-19 16-31 0-22-18-40-40-40-22 0-40 18-40 40 0 12 5 23 14 30 6 6 7 15 1 21-5 6-14 7-21 2-15-13-24-33-24-53 0-17 6-32 16-44-30-10-51-37-51-70z m30 0c0 24 19 44 44 44 1 0 32 0 31 0h31c24 0 44-20 44-44v-41h-16v43c0 9-6 15-15 15s-14-6-14-15v-43h-60v43c0 9-7 15-15 15s-15-6-15-15v-43h-15z m0 0m301-196v-46c0-14 11-25 25-25h160c13 0 24 11 24 25v46c0 32-21 60-50 69 10 12 16 28 16 44 0 39-32 70-70 70-39 0-70-31-70-70 0-16 6-32 16-44-30-9-51-37-51-69z m105 153c22 0 40-18 40-40 0-22-18-40-40-40-22 0-40 18-40 40 0 22 18 40 40 40z m-75-153c0 24 20 43 44 43h62c24 0 44-19 44-43v-42h-16v44c0 8-6 14-15 14s-14-6-14-14v-44h-60v44c0 8-7 14-15 14-8 0-15-6-15-14v-44h-15v42z m0 0m-692 0v-46c0-14 11-25 25-25h160c13 0 24 11 24 25v46c0 32-21 60-50 69 10 12 15 28 15 44 0 39-31 70-69 70-39 0-70-31-70-70 0-16 6-32 16-44-30-9-51-37-51-69z m105 153c22 0 40-18 40-40 0-22-18-40-40-40-22 0-40 18-40 40 0 22 18 40 40 40z m-75-153c0 24 19 43 44 43h62c24 0 44-19 44-43v-42h-16v44c0 8-6 14-15 14s-15-6-15-14v-44h-59v44c0 8-7 14-15 14-8 0-15-6-15-14v-44h-15z m0 0m632-392c0-14 11-25 25-25h160c13 0 24 11 24 25v46c0 33-21 60-50 70 10 12 16 27 16 44 0 38-32 69-70 69-39 0-70-31-70-69 0-17 6-32 16-44-30-10-51-37-51-70z m105 200c22 0 40-18 40-40 0-22-18-40-40-40-22 0-40 18-40 40 0 22 18 40 40 40z m-75-154c0 24 20 44 44 44h62c24 0 44-20 44-44v-41h-16v43c0 8-6 15-15 15s-14-7-14-15v-43h-60v43c0 8-7 15-15 15-8 0-15-7-15-15v-43h-15v41z m0 0m-692-46c0-14 11-25 25-25h160c13 0 24 11 24 25v46c0 33-21 60-50 70 10 12 15 27 15 44 0 38-31 69-69 69-39 0-70-31-70-69 0-17 6-32 16-44-30-10-51-37-51-70z m105 200c22 0 40-18 40-40 0-22-18-40-40-40-22 0-40 18-40 40 0 22 18 40 40 40z m-75-154c0 24 19 44 44 44h62c24 0 44-20 44-44v-41h-16v43c0 8-6 15-15 15s-15-7-15-15v-43h-59v43c0 8-7 15-15 15-8 0-15-7-15-15v-43h-15z m0 0m194 96c4-7 13-9 20-5l27 16c33-49 88-83 150-87v-31c0-8 7-15 15-15 8 0 15 7 15 15v31c61 4 116 37 150 86l26-15c8-4 17-2 21 5 4 8 1 17-6 21l-26 15c7 16 13 32 16 49 1 8-4 16-12 18-8 1-16-4-17-12-15-79-85-138-167-138-94 0-170 76-170 170s76 170 170 170c62 0 117-34 147-85 0 0 0 0 0 0 0 0 0 0 0 0 9-16 16-34 20-53 1-8 9-14 17-12 8 1 13 9 12 17-3 18-9 34-16 50l26 15c7 4 10 13 6 20-4 7-13 10-21 6l-26-16c-34 49-89 82-150 87v31c0 8-7 15-15 15s-15-7-15-15v-31c-62-5-117-38-150-87l-27 16c-7 4-16 1-20-6-4-7-2-16 5-20l27-16c-26-54-26-118 0-173l-27-15c-7-4-9-13-5-21z m0 0m107-313v-46c0-14 11-25 25-25h160c13 0 24 11 24 25v46c0 32-21 60-50 70 10 12 15 27 15 44 0 38-31 69-69 69-39 0-70-31-70-69 0-17 6-32 16-44-30-10-51-38-51-70z m105 154c22 0 40-18 40-40 0-22-18-41-40-41-22 0-40 19-40 41 0 22 18 40 40 40z m-75-154c0 24 19 44 44 44h62c24 0 44-20 44-44v-41h-16v43c0 8-6 15-15 15-8 0-14-7-14-15v-43h-60v43c0 8-7 15-15 15s-15-7-15-15v-43h-15z m0 0" horiz-adv-x="1000" />

<glyph glyph-name="notes" unicode="&#xe82f;" d="M34 850c-19-2-34-18-34-37v-407c0-21 17-37 38-37h363c21 0 38 16 38 37 0 12 0 398 0 407 0 19-15 35-34 37-1 0-3 0-4 0h-363c-2 0-3 0-4 0z m367-452h-363c-5 0-9 4-9 8v304h380v-304c0-4-3-8-8-8z m8 415v-74h-380v74c0 4 4 8 9 8h363c5 0 8-4 8-8z m0 0m-195-48h11c8 0 14 7 14 15 0 8-6 15-14 15h-11c-8 0-15-7-15-15 0-8 7-15 15-15z m0 0m137-100h-264c-8 0-14-6-14-15s6-14 14-14h264c9 0 15 6 15 14s-6 15-15 15z m0 0m0-62h-264c-8 0-14-7-14-15 0-8 6-15 14-15h264c9 0 15 7 15 15 0 8-6 15-15 15z m0 0m0-63h-264c-8 0-14-6-14-14 0-9 6-15 14-15h264c9 0 15 6 15 15 0 8-6 14-15 14z m0 0m0-62h-264c-8 0-14-7-14-15 0-8 6-15 14-15h264c9 0 15 7 15 15 0 8-6 15-15 15z m0 0m353 317h-10c-9 0-15-7-15-15 0-8 6-15 15-15h10c8 0 15 7 15 15 0 8-7 15-15 15z m0 0m127-130h-264c-8 0-15-6-15-15s7-14 15-14h264c8 0 15 6 15 14s-7 15-15 15z m0 0m0-62h-264c-8 0-15-7-15-15 0-8 7-15 15-15h264c8 0 15 7 15 15 0 8-7 15-15 15z m0 0m0-63h-264c-8 0-15-6-15-14 0-9 7-15 15-15h264c8 0 15 6 15 15 0 8-7 14-15 14z m0 0m0-62h-264c-8 0-15-7-15-15 0-8 7-15 15-15h264c8 0 15 7 15 15 0 8-7 15-15 15z m0 0m-831-591c0-20 17-37 38-37h363c21 0 38 17 38 37 0 13 0 398 0 407 0 21-17 38-38 38h-363c-21 0-38-17-38-38z m401-8h-363c-5 0-9 4-9 8v304h380v-304c0-4-3-8-8-8z m-372 415c0 4 4 8 9 8h363c5 0 8-4 8-8v-73h-380z m0 0m196-18h-11c-8 0-15-6-15-15 0-8 7-14 15-14h11c8 0 14 6 14 14 0 9-6 15-14 15z m0 0m126-129h-264c-8 0-14-7-14-15 0-8 6-15 14-15h264c9 0 15 7 15 15 0 8-6 15-15 15z m0 0m0-63h-264c-8 0-14-6-14-15 0-8 6-14 14-14h264c9 0 15 6 15 14 0 9-6 15-15 15z m0 0m0-62h-264c-8 0-14-7-14-15 0-8 6-15 14-15h264c9 0 15 7 15 15 0 8-6 15-15 15z m0 0m0-63h-264c-8 0-14-6-14-14 0-9 6-15 14-15h264c9 0 15 6 15 15 0 8-6 14-15 14z m0 0m353 317h-10c-9 0-15-6-15-15 0-8 6-14 15-14h10c8 0 15 6 15 14 0 9-7 15-15 15z m0 0m-137-159h264c8 0 15 7 15 15 0 8-7 15-15 15h-264c-8 0-15-7-15-15 0-8 7-15 15-15z m0 0m0-62h264c8 0 15 6 15 14 0 9-7 15-15 15h-264c-8 0-15-6-15-15 0-8 7-14 15-14z m0 0m0-63h264c8 0 15 7 15 15 0 8-7 15-15 15h-264c-8 0-15-7-15-15 0-8 7-15 15-15z m0 0m0-62h264c8 0 15 6 15 15 0 8-7 14-15 14h-264c-8 0-15-6-15-14 0-9 7-15 15-15z m0 0m351-43c0 13 0 398 0 407 0 21-17 38-37 38h-364c-21 0-37-17-37-38v-407c0-20 16-37 37-37h153c8 0 15 7 15 15s-7 14-15 14h-153c-4 0-8 4-8 8v304h380v-304c0-4-4-8-8-8h-143c-8 0-14-6-14-14s6-15 14-15h143c20 0 37 17 37 37z m-409 334v73c0 4 4 8 8 8h364c4 0 8-4 8-8v-73z m0 0m394 352c9 0 15 7 15 15 0 6 0 222 0 225 0 19-15 35-34 37-1 0-2 0-3 0h-364c-1 0-2 0-4 0-19-2-33-18-33-37v-407c0-21 16-37 37-37h364c20 0 37 16 37 37v114c0 8-6 14-15 14-8 0-14-6-14-14v-114c0-4-4-8-8-8h-364c-4 0-8 4-8 8v304h380v-122c0-8 6-15 14-15z m-394 166v74c0 4 4 8 8 8h364c4 0 8-4 8-8v-74z m0 0" horiz-adv-x="1000" />

<glyph glyph-name="pie-chart" unicode="&#xe830;" d="M551-152c121 4 233 62 307 159 9 12 7 30-6 40l-286 202c-18 13-44 0-44-23v-350c0-15 12-29 29-28z m0 280l56 56 28-20-84-84v48z m0-90l109 109 28-20-137-136z m189 52l-189-189v48l161 161z m52-37l-165-165c-18-4-37-8-57-9l194 194z m-101-143l125 126 18-13c-39-49-88-88-143-113z m-108 291l-32-32v54z m0 0m322 234c1-8 9-14 17-13 8 1 14 8 13 16-29 235-229 412-465 412-259 0-469-209-469-468 0-254 202-461 454-469 1 0 1 0 1 0 8 0 14 3 20 8 5 5 8 13 8 20v174c0 8-6 15-14 15-9 0-15-7-15-15v-172c-238 7-425 200-425 439 0 237 189 431 425 438v-637c0-8 6-14 15-14 8 0 14 6 14 14v170l336-238c13-9 31-6 40 7 48 73 75 158 78 246 0 8-6 14-14 15-9 0-15-6-16-15-2-81-27-160-72-228l-352 249v431c216-7 395-170 421-385z m0 0" horiz-adv-x="1000" />

<glyph glyph-name="plan" unicode="&#xe831;" d="M460 414c0-23 19-41 41-41s41 18 41 41-19 41-41 41-41-19-41-41z m41 11c6 0 11-5 11-11 0-6-5-11-11-11s-11 5-11 11c0 6 5 11 11 11z m0 0m-240-252c-8 0-14-7-14-15v-112h-143c-7 22-27 39-51 39-29 0-53-24-53-53 0-30 24-53 53-53 24 0 44 16 51 38h157c8 0 15 7 15 15v126c0 8-7 15-15 15z m-208-165c-13 0-24 11-24 24 0 13 11 23 24 23 13 0 23-10 23-23 0-13-10-24-23-24z m0 0m896 841c-24 0-44-16-51-38h-157c-8 0-15-7-15-15v-126c0-8 7-15 15-15s14 7 14 15v111h143c7-22 27-38 51-38 29 0 53 24 53 53s-24 53-53 53z m0-76c-13 0-23 10-23 23 0 13 10 24 23 24 13 0 24-11 24-24 0-13-11-23-24-23z m0 0m0-688c-24 0-44-17-51-39h-143v112c0 8-6 15-14 15s-15-7-15-15v-126c0-8 7-15 15-15h157c7-22 27-38 51-38 29 0 53 23 53 53 0 29-24 53-53 53z m0-77c-13 0-23 11-23 24 0 13 10 23 23 23 13 0 24-10 24-23 0-13-11-24-24-24z m0 0m-896 735c24 0 44 16 51 38h143v-111c0-8 6-15 14-15s15 7 15 15v126c0 8-7 15-15 15h-157c-7 22-27 38-51 38-29 0-53-24-53-53s24-53 53-53z m0 77c13 0 23-11 23-24s-10-23-23-23c-13 0-24 10-24 23s11 24 24 24z m0 0m896-353c-24 0-44-16-51-38h-44c-8 0-15-7-15-15 0-8 7-15 15-15h44c7-22 27-38 51-38 29 0 53 24 53 53 0 29-24 53-53 53z m0-77c-13 0-23 11-23 24 0 13 10 23 23 23 13 0 24-10 24-23 0-13-11-24-24-24z m0 0m-896-29c24 0 44 16 51 38h44c8 0 15 7 15 15 0 8-7 15-15 15h-44c-7 22-27 38-51 38-29 0-53-24-53-53 0-29 24-53 53-53z m0 76c13 0 23-10 23-23 0-13-10-24-23-24-13 0-24 11-24 24 0 13 11 23 24 23z m0 0m414 70h-1c-11 0-22-6-28-16l-35-61c-6-10-6-22 0-32l35-61c6-10 17-16 28-16h70c12 0 22 6 28 16l35 61c6 10 6 22 0 32l-35 61c-6 10-16 16-28 16h-1c-8 0-14-7-14-15 0-8 6-15 14-15h1c1 0 2 0 3-1l35-61c0-1 0-2 0-3l-35-60c-1-1-2-2-3-2h-70c-1 0-2 1-3 2l-35 60c0 1 0 2 0 3l35 61c1 1 2 1 3 1h1c8 0 14 7 14 15 0 8-6 15-14 15z m0 0m273-249l-30 29c13 22 22 44 28 69h42c18 0 32 14 32 31v53c0 18-14 32-32 32h-42c-6 24-15 47-28 69l30 29c12 13 12 33 0 45l-38 38c-12 12-32 12-45 0l-29-30c-22 13-45 22-69 28v42c0 18-14 32-31 32h-53c-18 0-32-14-32-32v-42c-24-6-47-15-69-28l-29 30c-13 12-33 12-45 0l-38-38c-12-12-12-32 0-45l30-29c-13-22-22-45-28-69h-42c-18 0-32-14-32-32v-53c0-17 14-31 32-31h42c6-25 15-47 28-69l-30-29c-12-13-12-33 0-45l38-38c12-12 32-12 45 0l29 30c22-13 45-23 69-28v-43c0-17 14-31 32-31h53c17 0 31 14 31 31v43c24 5 47 15 69 28l29-30c13-12 33-12 45 0l38 38c12 12 12 32 0 45z m-21-25l-37-37c-1-1-3-1-4 0l-33 33c-8 8-20 9-29 3-21-13-44-23-68-28-11-2-18-12-18-23v-47c0-1-1-2-2-2h-53c-2 0-3 1-3 2v47c0 11-7 21-18 23-24 5-47 15-68 28-4 3-8 4-13 4-6 0-11-2-16-7l-33-33c-1-1-3-1-3 0l-38 37c-1 1-1 3 0 4l33 33c8 8 9 20 3 29-13 21-22 44-28 68-2 11-12 18-23 18h-46c-2 0-3 1-3 2v53c0 2 1 3 3 3h46c11 0 21 7 23 18 6 24 15 47 28 68 6 9 5 21-3 29l-33 33c-1 1-1 2 0 3l38 38c0 1 2 1 3 0l33-33c8-8 20-9 29-3 21 13 44 22 68 28 11 2 18 11 18 22v47c0 2 1 3 3 3h53c1 0 2-1 2-3v-47c0-11 7-20 18-22 24-6 47-15 68-28 9-6 21-5 29 3l33 33c1 1 3 1 4 0l37-38c1-1 1-2 0-3l-33-33c-8-8-9-20-3-29 13-21 22-44 28-68 2-11 12-18 23-18h46c2 0 3-1 3-3v-53c0-1-1-2-3-2h-46c-11 0-21-7-23-18-6-24-15-47-28-68-6-9-5-21 3-29l33-33c1-1 1-3 0-4z m0 0m-69 212c1-8 9-13 17-11 8 1 13 9 12 17-18 84-93 144-178 144-100 0-181-81-181-181s81-181 181-181c85 0 160 60 178 144 1 8-4 15-12 17-8 2-16-3-17-11-15-70-77-121-149-121-84 0-152 68-152 152 0 84 68 152 152 152 72 0 134-51 149-121z m0 0" horiz-adv-x="1000" />

<glyph glyph-name="planning" unicode="&#xe832;" d="M81 693c-11 0-19-9-19-19v-743c0-11 8-20 19-20h563c11 0 20 9 20 20v743c0 10-9 19-20 19h-136v32h147c23 0 41-18 41-40v-350c0-8 7-15 15-15 8 0 14 7 14 15v350c0 38-31 70-70 70h-151c-5 9-15 15-26 15h-50v15c0 36-29 65-65 65-36 0-66-29-66-65v-15h-49c-12 0-22-6-27-15h-151c-39 0-70-32-70-70v-765c0-39 31-70 70-70h259c8 0 14 7 14 15 0 8-6 14-14 14h-259c-22 0-41 19-41 41v765c0 22 19 40 41 40h147v-32z m554-752h-544v723h127c3-14 15-25 30-25h230c14 0 27 11 30 25h127z m-308 844c0 20 16 36 36 36 20 0 36-16 36-36v-15h-72z m-79-44h230c0 0 1-1 1-1 0 0 0 0 0 0v-71c0 0-1 0-1 0h-230c-1 0-1 0-1 0 0 26 0 29 0 71 0 0 0 0 0 0 0 0 0 0 0 0v0c0 0 0 1 1 1z m0 0m-74-619c-25 0-45-21-45-46 0-20 12-37 30-43v-21c0-8 7-15 15-15 8 0 15 7 15 15v21c17 6 30 23 30 43 0 25-20 46-45 46z m0-62c-9 0-16 7-16 16s7 16 16 16c9 0 16-7 16-16s-7-16-16-16z m0 0m298 463l-21-35c-3-5-2-13 2-17l48-51c11-12 30-12 41 0l48 51c4 4 5 12 2 17l-21 35c-5 9-14 14-24 14h-50c-10 0-20-5-25-14z m50-83l-24 26h48z m24 68l8-13h-64l7 13z m0 0m-234 53h101c8 0 15 7 15 15 0 8-7 14-15 14h-101c-8 0-14-6-14-14 0-8 6-15 14-15z m0 0m-20 129h142c8 0 15 7 15 15 0 8-7 14-15 14h-142c-8 0-15-6-15-14 0-8 7-15 15-15z m0 0m240-295c-6 6-15 6-21 0l-37-37c-5-5-5-15 0-20 6-6 15-6 21 0l12 12v-20c0-20-17-37-37-37h-196c-37 0-66-30-66-66v-30c0-37 29-66 66-66h196c20 0 37-17 37-37v-31c0-20-17-36-37-36h-235c-9 0-15-7-15-15 0-8 6-15 15-15h235c37 0 66 30 66 66v31c0 36-29 66-66 66h-196c-21 0-37 16-37 37v30c0 20 16 37 37 37h196c37 0 66 29 66 66v20l12-12c6-6 15-6 21 0 6 5 6 15 0 20z m0 0m-135-545h258c39 0 70 31 70 70v346c0 8-6 15-14 15s-15-7-15-15v-346c0-22-18-41-41-41h-258c-8 0-15-6-15-14 0-8 7-15 15-15z m0 0" horiz-adv-x="1000" />

<glyph glyph-name="puzzle" unicode="&#xe833;" d="M48 83h49c11-30 34-54 64-66 8-2 16 1 19 9 3 8-1 16-8 19-25 9-44 30-49 56-1 7-7 12-14 12h-61c-10 0-19 8-19 18v166c0 7 6 13 13 14 34 3 60 33 60 67 0 35-26 64-60 68-7 1-13 7-13 14v166c0 10 9 18 19 18h69c7 0 13-5 14-12 3-34 33-60 67-60 35 0 64 26 68 60 1 7 7 12 14 12h69c10 0 19-8 19-18v-158c0-7 4-13 11-14 36-7 61-39 61-76 0-36-25-68-61-75-7-2-11-8-11-14v-158c0-10-9-18-19-18h-61c-7 0-13-5-14-12-5-24-22-45-45-55-7-3-11-11-8-19 4-7 12-11 20-8 28 13 49 36 58 64h50c26 0 48 22 48 48v146c43 15 73 55 73 101 0 46-30 87-73 102v146c0 26-22 48-48 48h-69c-22 0-40-17-43-39-2-19-19-34-39-34-19 0-36 15-38 34-3 22-21 39-43 39h-69c-26 0-48-22-48-48v-166c0-22 16-40 38-43 20-2 35-19 35-39 0-19-15-36-35-38-22-3-38-21-38-43v-166c0-26 22-48 48-48z m0 0m438 401c11-19 34-27 54-18 18 8 39 1 49-16 10-17 6-39-10-51-18-13-23-37-12-56l83-143c8-15 24-24 42-24h0c8 0 16 2 24 6l42 25c34-30 84-36 124-13 40 23 60 70 51 114l43 24c23 14 31 43 18 66l-73 126c20 23 30 54 25 85-1 8-8 14-16 13-8-1-14-9-13-17 4-25-5-50-24-67-6-5-7-12-3-18l78-137c5-9 2-20-7-25l-52-31c-6-3-9-10-7-17 11-34-3-72-35-90-31-18-71-12-95 15-5 5-13 6-19 3l-52-31c-3-1-6-2-9-2-7 0-13 3-17 9l-83 144c-3 6-1 13 4 18 28 20 36 58 19 89-18 30-55 42-87 28-6-3-13 0-17 6l-83 143c-5 9-2 21 7 26l60 34c6 4 13 2 18-3 20-28 59-36 89-19 30 17 42 55 28 86-3 7 0 14 6 18l60 34c9 5 20 2 25-7l79-136c3-6 10-9 17-6 25 8 52 3 72-14 6-5 16-4 21 3 5 6 4 15-3 20-24 20-57 28-87 22l-73 126c-14 23-43 31-66 18l-60-35c-19-11-26-34-18-54 8-18 1-40-16-50-17-10-39-5-51 11-13 18-37 23-56 12l-60-35c-23-13-30-42-17-65z m0 0" horiz-adv-x="1000" />

<glyph glyph-name="pyramid" unicode="&#xe834;" d="M896 707l-44-71c-8-13 2-29 18-29h29v-391c0-8 6-15 14-15 8 0 15 7 15 15v391h29c15 0 25 16 17 29l0 0-43 71c-8 13-27 13-35 0z m-9-70l26 43 27-43z m0 0m-844-30h29v-391c0-8 7-15 15-15 8 0 14 7 14 15v391h29c16 0 26 16 18 29v0l-44 71c-8 13-27 13-35 0l-43-71c-8-13 2-29 17-29z m44 73l26-43h-53z m0 0m632-221c-4 8-13 11-20 7-7-4-10-13-7-20l41-81h-466l107 213h252l36-71c3-7 12-10 19-6 8 3 11 12 7 20-2 4-150 300-154 308-14 28-54 28-67 0-9-18-352-702-358-715 0 0 0 0 0 0l-105-210c-13-25 6-54 34-54h428c8 0 15 7 15 15 0 8-7 14-15 14h-428c-7 0-10 7-8 12l101 202h738l101-202c3-5-1-12-7-12h-429c-8 0-14-6-14-14 0-8 6-15 14-15h429c27 0 45 29 33 54-4 9-272 545-277 555z m-226 357c3 6 11 6 14 0l105-209h-224z m-347-694l106 213h496l106-213z m0 0" horiz-adv-x="1000" />

<glyph glyph-name="search-1" unicode="&#xe835;" d="M47-134c20-21 54-21 75 0l210 210 28 28c11 11 17 26 16 42l66 66c50-35 109-58 170-64 1 0 1 0 2 0 7 0 14 5 14 13 1 8-5 15-13 16-63 6-123 32-170 70-238 192-98 574 203 574 169 0 305-129 321-290 1-8 8-14 16-13 8 0 14 8 13 16-17 175-165 316-350 316-287 0-453-326-286-558l-66-66c-16 1-31-5-42-16-13-12-231-231-238-238-21-21-21-55 0-76z m293 259l-18-18-65 64 18 19c9 9 25 9 34 0l31-31c0 0 0 0 0 0 9-10 9-25 0-34z m41 144c11-13 24-26 38-39l-55-55c-1 2-2 3-4 4l-31 31c-1 2-2 3-4 4z m-345-318l200 200 65-65-200-200c-9-9-24-9-34 0l-31 31c-9 10-9 25 0 34z m0 0m900 547c0 77-30 149-84 204-113 112-295 112-407 0-113-113-113-295 0-407 56-57 129-85 203-85 158 0 288 128 288 288z m-288-258c-66 0-132 25-183 75-101 101-101 265 0 366 51 50 117 75 183 75 142 0 258-114 258-258 0-144-116-258-258-258z m0 0m64 286c16 16 25 38 25 63 0 49-40 89-89 89-49 0-89-40-89-89 0-25 10-47 25-63-42-10-73-47-73-92v-63c0-15 13-28 28-28h218c15 0 28 13 28 28v63c0 45-31 82-73 92z m-64 123c33 0 60-27 60-60 0-33-27-60-60-60-33 0-60 27-60 60 0 33 27 60 60 60z m108-277h-33v65c0 8-6 15-14 15s-15-7-15-15v-65h-92v65c0 8-7 15-15 15-8 0-14-7-14-15v-65h-32v62c0 36 29 65 65 65h84c36 0 66-29 66-65z m0 0m242 90c1 8-5 16-13 16-8 1-15-5-16-13-15-152-136-273-288-288-8-1-14-8-13-16 0-8 7-13 14-13 1 0 1 0 2 0 166 17 297 148 314 314z m0 0" horiz-adv-x="1000" />

<glyph glyph-name="search" unicode="&#xe836;" d="M820 511c-35 187-196 331-393 338-138 5-266-61-343-164 0 0-1-1-1-2-203-270-10-659 330-660 0 0 0 0 0 0h0 1 0c150 0 287 82 360 212l2-2c0-10 3-19 10-26l136-135c14-15 37-15 52 0l17 17c15 14 15 38 0 52l-40 41c-6 6-16 6-21 0-6-6-6-15 0-21l41-41c2-3 2-7 0-10l-18-18c-3-2-8-2-10 0l-136 136c-3 3-2 8 0 10l18 18 0 0c2 2 7 3 10 0l46-46c6-6 15-6 21 0 6 5 6 15 0 20l-46 46c-7 7-16 11-26 11l-32 32c39 57 46 129 22 192z m-207-252c-90 7-163 82-163 177 0 0 0 0 0 0 1 111 102 196 213 173 60-12 107-53 129-107 48-122-47-253-179-243z m-496-66c26 20 54 36 84 50 20-63 53-131 102-174-73 22-138 66-186 124z m-87 228h144c1-52 8-103 19-149-33-15-65-34-94-55-42 60-66 131-69 204z m69 234c29-21 61-39 94-54-12-49-18-99-19-150h-144c3 76 28 146 69 204z m204 148c-49-43-82-110-102-174-30 14-58 30-84 50 46 56 109 101 186 124z m407-124c-19-14-39-27-61-38-9 1-18 1-28 1-23 70-57 126-98 162 71-21 137-63 187-125z m-482-425c53 20 111 32 171 33v-234c-88 12-145 116-171 201z m-7 336c55-21 116-33 178-34v-105h-196c1 49 7 96 18 139z m178 229v-234c-60 2-118 13-171 33 26 85 83 189 171 201z m29-439c6-23 17-45 32-65-11 1-21 1-32 2z m0-93c20 0 41-2 61-5 29-26 64-43 102-50-36-103-97-170-163-179z m193-58c10 0 20 0 30 2 21-11 41-24 59-38-48-59-114-102-187-124 41 35 75 91 98 160z m-193 327c11 0 22 0 32 1-14-20-25-43-32-67z m62 34c-20-3-41-4-62-5v234c67-9 128-76 163-180-37-7-72-23-101-49z m-91-169v-104c-62-2-123-14-178-34-11 43-17 90-18 138z m295-181c17 6 34 14 50 25l8-9c-7-14-15-27-24-39-11 8-22 16-34 23z m-2 392c13 7 25 15 36 24 15-21 27-43 37-67-20 19-45 33-73 43z m88-336l22-22-13-13c-1 1-10 10-22 22 0 0 0 0 0 1 4 3 8 7 13 12z m0 0m-153 257c55 0 101-37 114-87 2-8 10-12 18-10 8 2 12 10 10 18-29 109-166 145-246 66-92-93-26-251 104-251 68 0 125 45 142 109 2 7-2 15-10 18-8 2-16-3-18-11-5-20-16-38-31-53-73-73-200-22-200 84 0 65 52 117 117 117z m0 0" horiz-adv-x="1000" />

<glyph glyph-name="settings" unicode="&#xe837;" d="M515 802c-25 0-45-20-45-45s20-46 45-46c25 0 45 21 45 46s-20 45-45 45z m0-62c-9 0-16 8-16 17 0 8 7 16 16 16 9 0 16-8 16-16 0-9-7-17-16-17z m0 0m187-224c-25 0-45-20-45-45s20-45 45-45c25 0 45 20 45 45s-20 45-45 45z m0-61c-9 0-16 7-16 16 0 9 7 16 16 16 9 0 16-7 16-16 0-9-7-16-16-16z m0 0m253 61h-171c-16 29-47 48-82 48-35 0-66-19-82-48h-575c-25 0-45-20-45-45 0-25 20-45 45-45h575c16-29 47-49 82-49s66 20 82 49h171c25 0 45 20 45 45 0 25-20 45-45 45z m-345-61h-565c-8 0-16 7-16 16 0 9 8 16 16 16h565c-2-10-2-21 0-32z m92-48c-35 0-64 28-64 64s29 64 64 64 64-29 64-64c0-36-29-64-64-64z m253 48h-161c2 10 2 21 0 32h161c9 0 16-7 16-16 0-9-7-16-16-16z m0 0m-692-270c0-25 21-45 46-45 25 0 45 20 45 45s-20 46-45 46c-25 0-46-21-46-46z m46 16c9 0 16-7 16-16 0-9-7-16-16-16-9 0-16 7-16 16 0 9 7 16 16 16z m0 0m646 30h-565c-9 17-24 31-42 39-7 3-16 0-19-7-4-7-1-16 7-20 27-12 39-41 37-61-2-34-30-61-64-61-46 0-77 47-59 89 5 14 16 26 30 33 7 3 10 12 7 19s-13 11-20 7c-17-9-31-22-40-38h-182c-25 0-45-21-45-46s20-45 45-45h182c16-29 47-48 82-48 35 0 65 19 81 48h565c25 0 45 20 45 45s-20 46-45 46z m-738-62h-172c-8 0-16 7-16 16s8 16 16 16h172c-2-10-2-21 0-32z m738 0h-554c2 10 2 21 0 32h554c9 0 16-7 16-16s-7-16-16-16z m0 0m0 633h-358c-16 29-47 48-82 48-35 0-66-19-82-48h-388c-25 0-45-20-45-45s20-46 45-46h388c16-28 47-48 82-48 35 0 66 20 82 48h119c8 0 15 7 15 15 0 8-7 14-15 14h-109c2 11 2 23 0 33h348c9 0 16-8 16-16 0-9-7-17-16-17h-170c-8 0-15-6-15-14 0-8 7-15 15-15h170c25 0 45 21 45 46s-20 45-45 45z m-532-62h-378c-8 0-16 8-16 17 0 8 8 16 16 16h378c-2-11-2-22 0-33z m92-48c-35 0-64 29-64 65s29 64 64 64c35 0 64-29 64-64s-29-65-64-65z m0 0" horiz-adv-x="1000" />

<glyph glyph-name="startup" unicode="&#xe838;" d="M748 251l-137 164v21c0 80-18 157-55 229-33 65-82 127-146 175-18 13-43 13-61 0-59-45-110-104-147-175-36-72-55-149-55-229v-21l-136-164c-7-8-10-17-10-27v-112c0-22 19-41 41-41h107c7-21 26-36 49-36h56v-28c-15-5-25-19-25-35v-15c0-21 17-37 37-37h79c8 0 15 6 15 14s-7 15-15 15h-79c-4 0-8 4-8 8v15c0 4 4 8 8 8h226c5 0 8-4 8-8v-15c0-4-3-8-8-8h-78c-9 0-15-7-15-15s6-14 15-14h78c21 0 38 16 38 37v15c0 16-10 30-25 35v28h56c23 0 42 15 48 36h107c23 0 42 19 42 41 0 13 0 98 0 112 0 10-4 19-10 27 0 0 0 0 0 0z m-22-19c1-2 2-5 2-8v-66h-117v211z m-359 584c6 6 16 6 24 1 3-1 55-39 100-101h-223c28 38 61 72 99 100z m-190-380c0 90 25 176 71 250h263c46-74 71-160 71-250v-26-290h-157c0 44 0 50 0 94 0 8-7 14-15 14-8 0-15-6-15-14v-56h-31v192c0 5 4 9 9 9h12c6 0 10-4 10-9v-68c0-8 7-14 15-14 8 0 15 6 15 14v68c0 21-18 39-40 39h-12c-21 0-39-18-39-39v-230h-157c0 9 0 280 0 290z m218-326c0-5-5-9-10-9h-12c-5 0-9 4-9 9v18h31z m-362 122l114 137v-211h-117v66c0 3 1 6 3 8z m-3-120v16h117v-27h-105c-6 0-12 5-12 11z m446-102h-193v25h193z m85 55c-9 0-353 0-363 0-12 0-21 9-21 21v4h163c7-12 20-19 33-19h12c14 0 27 7 34 19h163v-4c0-12-10-21-21-21z m167 47c0-6-5-11-12-11h-105c0 10 0 17 0 27h117z m0 0m-352 308c67 0 121 54 121 120 0 67-54 121-121 121-66 0-120-54-120-121 0-66 54-120 120-120z m0 212c51 0 92-41 92-92 0-50-41-91-92-91-50 0-91 41-91 91 0 51 41 92 91 92z m0 0m-72-769v28c0 8-6 15-15 15s-14-7-14-15v-28c0-8 6-15 14-15s15 7 15 15z m0 0m58 0v28c0 8-7 15-15 15s-14-7-14-15v-28c0-8 6-15 14-15s15 7 15 15z m0 0m58 0v28c0 8-7 15-15 15s-14-7-14-15v-28c0-8 6-15 14-15s15 7 15 15z m0 0m58 0v28c0 8-7 15-15 15-8 0-14-7-14-15v-28c0-8 6-15 14-15 8 0 15 7 15 15z m0 0m-102 607c39 0 71 32 71 70 0 39-32 71-71 71-38 0-70-32-70-71 0-38 32-70 70-70z m0 111c23 0 41-18 41-41 0-22-18-40-41-40-22 0-41 18-41 40 0 23 19 41 41 41z m0 0" horiz-adv-x="1000" />

<glyph glyph-name="statistics-1" unicode="&#xe839;" d="M985-44h-9v56c0 8-7 15-15 15-8 0-14-7-14-15v-56h-158v171c0 5 5 10 10 10h138c5 0 10-5 10-10v-47c0-8 6-14 14-14 8 0 15 6 15 14v47c0 21-18 39-39 39h-138c-21 0-39-18-39-39v-171h-29v325c0 22-18 40-39 40h-35c-8 0-15-7-15-15 0-8 7-15 15-15h35c5 0 9-4 9-10v-325h-157v325c0 6 5 10 10 10h35c8 0 14 7 14 15 0 8-6 15-14 15h-35c-22 0-39-18-39-40v-325h-30v480c0 21-17 39-39 39h-137c-22 0-40-18-40-39v-480h-29v634c0 22-18 40-39 40h-138c-21 0-39-18-39-40v-634h-9c-8 0-15-7-15-15 0-8 7-15 15-15h970c8 0 15 7 15 15 0 8-7 15-15 15z m-932 0v634c0 6 5 10 10 10h138c5 0 10-4 10-10v-634z m246 0v480c0 5 4 10 10 10h137c6 0 10-5 10-10v-480z m0 0m500 335c0 0 0 0 0 0l84 2c17 0 28 17 22 33l-31 78c-8 18-32 20-42 4l-8-11-677 447c-16 11-37 6-48-10-10-16-6-37 10-48l677-447-7-11c-11-16 1-37 20-37z m-674 520c-2 1-3 5-1 7 1 3 5 4 7 2l689-455c7-5 16-3 21 4l9 14 25-61-66-1 10 14c4 7 2 16-5 21z m0 0" horiz-adv-x="1000" />

<glyph glyph-name="statistics" unicode="&#xe83a;" d="M985-44h-9v288c0 8-7 14-15 14-8 0-14-6-14-14v-288h-158v634c0 6 5 10 10 10h138c5 0 10-4 10-10v-278c0-8 6-15 14-15 8 0 15 7 15 15v278c0 22-18 39-39 39h-138c-21 0-39-17-39-39v-634h-29v480c0 21-18 39-39 39h-35c-8 0-15-7-15-15 0-8 7-14 15-14h35c5 0 9-5 9-10v-480h-157v480c0 5 5 10 10 10h35c8 0 14 6 14 14 0 8-6 15-14 15h-35c-22 0-39-18-39-39v-480h-30v325c0 22-17 40-39 40h-137c-22 0-40-18-40-40v-325h-29v171c0 21-18 39-39 39h-138c-21 0-39-18-39-39v-171h-9c-8 0-15-7-15-15s7-15 15-15h970c8 0 15 7 15 15s-7 15-15 15z m-932 0v171c0 5 5 10 10 10h138c5 0 10-5 10-10v-171z m246 0v325c0 6 4 10 10 10h137c6 0 10-4 10-10v-325z m0 0m-200 351c11-16 32-21 48-10l677 447 8-11c10-16 34-13 42 4l31 78c6 16-5 33-22 33l-84 2c0 0 0 0 0 0-19 0-31-21-20-37l7-11-677-447c-16-11-20-32-10-48z m26 23l689 456c4 2 6 5 7 9 0 4 0 8-2 11l-10 15 66-2-25-61-9 14c-5 7-14 9-21 5l-689-456c-2-1-6-1-7 2-2 2-1 6 1 7z m0 0" horiz-adv-x="1000" />

<glyph glyph-name="steering-wheel" unicode="&#xe83b;" d="M572 364s0 0 0 0l-24 42c-5 8-14 13-24 13h-48c-10 0-19-5-24-13l-24-42c-5-9-5-19 0-27l24-43c5-8 14-13 24-13h48c10 0 19 5 24 13l24 43c5 8 5 18 0 27z m-49-54h-46l-23 40 23 40h46l23-40z m0 0m145 208c0 1 0 1-1 2-43 42-102 68-167 68-65 0-124-26-167-68 0-1-1-1-1-2s-1 0-2-1c-42-43-68-102-68-167 0-65 26-124 68-167 1 0 1-1 2-1s1-1 1-2c43-42 102-68 167-68 65 0 124 26 167 68 1 1 1 1 1 2 1 0 1 1 2 1 42 43 68 102 68 167s-26 124-68 167c-1 1-1 1-2 1z m-10-305l-53 53c15 20 26 43 28 69h75c-3-46-21-89-50-122z m-366 122h75c3-26 13-49 28-69l-53-53c-28 33-47 76-50 122z m50 152l53-53c-15-19-25-43-28-69h-75c3 46 22 89 50 122z m158-242c-58 0-105 47-105 105 0 58 47 105 105 105 58 0 105-47 105-105 0-58-47-105-105-105z m84 210c-19 15-43 26-69 28v75c46-3 89-21 122-50z m-99 28c-26-2-49-13-69-28l-53 53c33 29 76 47 122 50z m-69-238c20-15 43-25 69-28v-75c-46 3-89 22-122 50z m99-28c26 3 50 13 69 28l53-53c-33-28-76-47-122-50z m118 148c-2 26-13 50-28 69l53 53c29-33 47-76 50-122z m0 0m-130-1c-9 2-18-4-18-14 0-8 7-15 15-15 8 0 15 7 15 15 0 7-5 13-12 14z m0 0m456 28h-78c0 15-12 27-27 27h-16c-15 0-28-13-28-28v-26h-17c-3 70-31 133-75 182l12 12 18-19c6-5 13-8 20-8 7 0 14 3 20 8l11 12c10 10 10 27 1 38l54 55c16 16 16 42 0 58l-1 1c-16 16-42 16-58 0l-55-54c-11 9-28 9-38-1l-12-12c-10-10-10-28 0-39l19-18-12-12c-49 44-112 72-182 75v17h26c15 0 28 13 28 28v16c0 15-12 27-27 27v78c0 23-18 41-41 41h-2c-23 0-41-18-41-41v-78c-15 0-27-12-27-27v-16c0-15 13-28 28-28h26v-17c-69-3-133-31-182-75l-12 12 19 18c5 6 8 12 8 20 0 7-3 14-8 19l-11 12c-11 10-28 10-39 1l-54 54c-17 16-43 16-59 0l-1-1c-16-16-16-42 0-58l54-55c-9-11-9-28 1-38l12-12c5-5 12-8 19-8 7 0 14 3 20 8l18 19 13-12c-45-49-73-112-76-182h-17v26c0 15-12 28-28 28h-16c-14 0-27-12-27-27h-78c-22 0-41-18-41-41v-2c0-23 19-41 41-41h78c0-15 13-27 27-27h16c16 0 28 13 28 28v26h17c3-69 31-133 76-182l-13-12-18 19c-11 11-29 11-39 0l-12-11c-10-11-10-28-1-39l-54-54c-16-17-16-43 0-59l1-1c16-16 42-16 59 0l54 54c6-4 12-7 19-7 7 0 14 3 20 8l11 12c5 5 8 12 8 19 0 8-3 15-8 20l-19 18 12 13c49-45 113-73 182-76v-17h-26c-15 0-28-12-28-28v-16c0-15 12-27 27-27v-78c0-23 18-41 41-41h2c22 0 40 17 41 39 1 8-5 15-14 15-8 1-15-5-15-13 0-7-6-12-12-12h-2c-7 0-12 6-12 12v78h26v-11c0-8 7-15 15-15 8 0 14 7 14 15v11c15 0 27 12 27 27v16c0 16-13 28-28 28h-26v17c70 3 133 31 182 76l12-13-19-18c-10-11-10-29 0-39 11-11 17-20 31-20 7 0 14 3 19 7l55-54c16-16 42-16 58 0l1 1c16 16 16 42 0 59l-54 54c9 11 9 28-1 39l-12 11c-10 11-28 11-39 0l-18-19-12 12c44 49 72 112 75 182h17v-26c0-15 13-28 28-28h16c15 0 27 12 27 27h11c8 0 15 6 15 14 0 8-7 15-15 15h-11v26h78c6 0 12-5 12-12v-2c0-6-5-12-12-12-8 0-14-7-13-15 0-8 7-15 15-14 22 1 39 19 39 41v2c0 23-18 41-41 41z m-144 292c5 4 12 4 17 0l2-2c4-5 4-12 0-17l-55-54-18 18z m-94-57c15-15 53-53 56-56l-9-9-56 56z m-234 182c0 6 5 12 12 12h2c7 0 12-6 12-12v-78h-26z m-26-107h78v-13h-78z m-295-20l2 2c5 4 12 4 17 0l55-55-19-18-55 54c-4 5-4 12 0 17z m66-120l-9 9c1 1-6-6 56 56l9-9c-66-66 29 29-56-56z m-203-213v2c0 7 6 12 12 12h78v-26h-78c-6 0-12 5-12 12z m132-38h-13c0 30 0 53 0 78h13z m24-295c-5-4-12-4-17 0l-2 2c-4 5-4 12 0 17l55 55 19-19z m94 57l-8 8c0 0 0 0 0 0l-39 40c-1 0-1 0-1 0l-8 8 9 9 28-28s0 0 0 0 0 0 0 0l28-28z m260-75c-30 0-53 0-78 0v13h78z m295 20l-2-2c-5-4-12-4-17 0l-54 55 18 19 55-55c4-5 4-12 0-17z m-66 120l9-9c-2-2 9 9-56-56l-9 9z m-268-52c-146 0-264 118-264 264s118 264 264 264c146 0 264-118 264-264s-118-264-264-264z m352 225h-13v78h13z m0 0" horiz-adv-x="1000" />

<glyph glyph-name="stopwatch" unicode="&#xe83c;" d="M411 604c-191 0-346-155-346-346s155-346 346-346 346 155 346 346-155 346-346 346z m0-663c-175 0-317 143-317 317 0 175 142 317 317 317 175 0 317-142 317-317 0-174-142-317-317-317z m0 0m0 619c-166 0-302-136-302-302 0-166 136-302 302-302 166 0 302 136 302 302 0 166-136 302-302 302z m149-530l-12 20c-4 7-13 9-20 5-7-4-9-13-5-20l11-20c-33-17-69-27-108-29v23c0 8-7 15-15 15-8 0-15-7-15-15v-23c-39 2-75 12-108 29l11 20c4 7 2 16-5 20-7 4-16 2-20-5l-12-20c-31 21-58 48-79 79l20 12c7 4 9 13 5 20-4 7-13 9-20 5l-20-11c-17 33-27 69-29 108h23c8 0 15 7 15 15 0 8-7 15-15 15h-23c2 39 12 75 29 108 22-12 22-13 28-13 5 0 10 2 12 7 4 7 2 16-5 20l-20 12c21 31 48 59 79 79l12-20c4-7 13-9 20-5 7 4 9 13 5 20l-11 20c33 17 69 27 108 29v-23c0-8 7-15 15-15 8 0 15 7 15 15v23c39-2 75-12 108-29l-11-20c-4-7-2-16 5-20 7-4 16-2 20 5l12 20c31-20 58-48 79-79l-20-12c-7-4-9-13-5-20 4-7 13-9 20-5l20 11c17-33 27-69 29-108h-23c-8 0-15-7-15-15 0-8 7-15 15-15h23c-2-39-12-75-29-108l-20 11c-7 4-16 2-20-5-4-7-2-16 5-20l20-12c-21-31-48-58-79-79z m0 0m-134 280v127c0 8-7 15-15 15-8 0-15-7-15-15v-127c-22-6-39-27-39-52 0-30 24-54 54-54s54 24 54 54c0 25-17 46-39 52z m-15-77c-14 0-25 11-25 25 0 14 11 25 25 25 14 0 25-11 25-25 0-14-11-25-25-25z m0 0m-410 25c0-226 184-410 410-410 103 0 202 38 277 108 76 69 122 164 131 265 1 8-5 15-13 16-8 1-15-5-16-13-18-198-181-347-379-347-210 0-381 171-381 381 0 210 171 381 381 381 196 0 363-153 379-349 1-8 8-14 16-14 8 1 14 8 14 16-9 107-60 207-143 278l22 31 15-10c16-12 38-8 50 8l18 24c11 16 8 39-8 50l-88 63c-16 11-38 8-49-8l-18-25c-12-16-8-38 8-49l13-10-23-31c-45 26-96 43-148 51v42h13c21 0 39 17 39 39v66c0 22-18 39-39 39h-37c-8 0-14-7-14-15s6-14 14-14h37c5 0 9-5 9-10v-66c0-5-4-10-9-10-14 0-128 0-142 0-5 0-9 5-9 10v66c0 5 4 10 9 10h37c8 0 14 6 14 14s-6 15-14 15h-37c-21 0-39-17-39-39v-66c0-22 18-39 39-39h13v-42c-53-8-103-26-148-52l-23 32 13 10c16 11 20 33 8 49l-18 25c-11 16-33 19-49 8l-88-63c-16-11-19-34-8-50l18-24c12-16 34-20 50-8l15 10 22-31c-88-75-144-187-144-312z m89 356c-2-2-6-1-8 2l-18 25c-2 2-1 6 1 8l88 63c3 2 7 1 8-1l18-25c2-3 2-7-1-9-7-5-77-55-88-63z m69 13l21-30c-4-3-8-6-12-9l-21 31c10 7 8 5 12 8z m484 59l18 25c2 3 5 3 8 1l88-63c2-2 3-6 1-8l-18-25c-2-3-6-4-8-2-11 8-80 58-88 63-3 2-3 6-1 9z m20-59l12-8-21-31c-4 3-8 6-12 9z m-281 40v39h58v-39c-9 1-20 1-30 1-9 0-20 0-28-1z m0 0" horiz-adv-x="1000" />

<glyph glyph-name="strategy-1" unicode="&#xe83d;" d="M37 124h161v-11c0-22 18-40 40-40h23l-68-185c-6-18 8-38 27-38h63c12 0 23 8 27 19l74 204h22c8 0 14 6 14 14 0 8-6 15-14 15-37 0-135 0-168 0-6 0-11 5-11 11v11h433v-11c0-6-5-11-12-11-17 0-152 0-174 0-8 0-14-7-14-15 0-8 6-14 14-14h28l75-204c4-11 14-19 26-19h64c19 0 33 20 26 38l-67 185h22c23 0 41 18 41 40v11h161c20 0 37 16 37 37v42c0 18-14 34-32 37v213c0 8-6 14-14 14-8 0-15-6-15-14v-213h-765v494h765v-213c0-8 7-15 15-15 8 0 14 7 14 15v213c18 3 32 18 32 37v42c0 20-17 37-37 37h-813c-20 0-37-17-37-37v-42c0-19 14-34 32-37v-494c-18-3-32-19-32-37v-42c0-21 17-37 37-37z m316-51l-70-194h-62l71 194z m312-194h-61l-70 194h61z m-636 934c0 4 4 8 8 8h813c4 0 8-4 8-8v-42c0-5-4-8-8-8-9 0-804 0-813 0-4 0-8 3-8 8z m0-610c0 4 4 8 8 8h813c4 0 8-4 8-8v-42c0-5-4-8-8-8h-176c-7 0-621 0-637 0-4 0-8 3-8 8z m0 0m241 465c-35 0-63-28-63-63s28-64 63-64 64 29 64 64-29 63-64 63z m0-97c-19 0-34 15-34 34s15 34 34 34 34-16 34-34-15-34-34-34z m0 0m232-202c0-35 29-63 64-63 35 0 63 28 63 63s-28 63-63 63-64-28-64-63z m98 0c0-19-15-34-34-34-19 0-34 15-34 34s15 34 34 34c19 0 34-15 34-34z m0 0m-279 51c-6 5-15 5-21 0l-30-30-30 30c-5 5-15 5-20 0-6-6-6-15 0-21l29-30-29-30c-6-6-6-15 0-21 5-5 15-5 20 0l30 30 30-30c6-5 15-5 21 0 6 6 6 15 0 21l-30 30 30 30c6 6 6 15 0 21z m0 0m350 217l-73 45c-13 8-29-2-29-18v-31c-71-7-134-39-184-95-39-43-56-85-57-87-3-8 1-16 9-19 7-3 16 0 19 8 0 1 59 147 213 163v-29c0-16 16-25 29-18l73 46c13 7 13 27 0 35z m-73-46v56l46-28z m0 0" horiz-adv-x="1000" />

<glyph glyph-name="target" unicode="&#xe83e;" d="M688 350c0 104-84 188-188 188s-188-84-188-188 84-188 188-188 188 84 188 188z m-188-159c-88 0-159 71-159 159s71 159 159 159 159-71 159-159-71-159-159-159z m0 0m0 253c-52 0-94-42-94-94 0-52 42-94 94-94s94 42 94 94c0 52-42 94-94 94z m0-159c-36 0-65 29-65 65s29 65 65 65 65-29 65-65-29-65-65-65z m0 0m473 106h-53c-19 201-178 360-379 379v53c0 15-13 27-28 27h-26c-15 0-28-12-28-27v-53c-200-19-360-178-379-379h-53c-15 0-27-13-27-28v-26c0-15 12-28 27-28h53c19-200 179-360 379-379v-53c0-15 13-27 28-27h26c15 0 28 12 28 27v53c201 19 360 179 379 379h53c15 0 27 13 27 28v26c0 15-12 28-27 28z m-2-52h-52c-14 0-27-11-28-26-18-188-166-336-354-354-15-1-26-14-26-28v-52h-22v52c0 14-11 27-26 28-188 18-336 166-354 354-1 15-13 26-28 26h-52v22h52c15 0 27 11 28 26 18 188 166 336 354 354 15 1 26 14 26 28v52h22v-52c0-14 11-27 26-28 188-18 336-166 354-354 1-15 14-26 28-26h52z m0 0m-437-268c1 0 1 0 2 0 140 18 245 138 245 279 0 155-126 281-281 281s-281-126-281-281c0-141 105-261 245-279 8-1 15 5 16 13 1 8-4 15-12 17-125 16-220 123-220 249 0 139 113 252 252 252s252-113 252-252c0-126-95-233-220-249-8-2-13-9-12-17 1-7 7-13 14-13z m0 0m321 299c8 0 14 8 14 16-18 188-177 334-369 334-204 0-370-166-370-370s166-370 370-370c192 0 351 146 369 334 0 9-6 16-14 16-8 1-15-5-16-13-16-175-162-308-339-308-188 0-341 153-341 341s153 341 341 341c177 0 323-133 339-308 1-8 8-14 16-13z m0 0" horiz-adv-x="1000" />

<glyph glyph-name="teamwork" unicode="&#xe83f;" d="M904 411c0 40-33 73-73 73-40 0-73-33-73-73 0-18 7-34 17-47-31-10-54-39-54-74v-49c0-13 11-25 25-25h170c14 0 25 12 25 25v17c0 8-6 14-14 14-9 0-15-6-15-14v-13h-19v48c0 8-6 14-14 14-9 0-15-6-15-14v-48h-66v48c0 8-6 14-14 14-8 0-15-6-15-14v-48h-19v45c0 27 22 48 48 48h66c16 0 30-8 39-20 5-7 14-9 21-4 6 5 8 14 3 20-10 15-24 25-40 30 11 13 17 29 17 47z m-73 44c24 0 44-20 44-44 0-24-20-44-44-44-24 0-43 20-43 44 0 24 19 44 43 44z m0 0m-806-239h170c14 0 25 12 25 25v49c0 35-23 64-54 74 11 13 17 29 17 47 0 40-33 73-73 73-40 0-73-33-73-73 0-18 7-34 17-47-31-10-54-39-54-74v-49c0-13 11-25 25-25z m85 239c24 0 44-20 44-44 0-24-20-44-44-44s-44 20-44 44c0 24 20 44 44 44z m-81-165c0 27 22 48 48 48h66c26 0 48-21 48-48v-45h-19v48c0 8-6 14-14 14-9 0-15-6-15-14v-48h-66v48c0 8-6 14-14 14-8 0-15-6-15-14v-48h-19z m0 0m333 370v-48c0-14 11-26 25-26h167c14 0 25 12 25 26v48c0 34-22 62-53 72 10 13 17 29 17 46 0 40-33 72-72 72-40 0-72-32-72-72 0-17 6-33 16-46-30-10-53-38-53-72z m109 161c23 0 42-19 42-43 0-23-19-42-42-42-24 0-43 19-43 42 0 24 19 43 43 43z m-79-161c0 25 20 46 46 46h65c26 0 47-21 47-46v-44h-18v46c0 8-7 14-15 14-8 0-14-6-14-14v-46h-64v46c0 8-7 14-15 14-8 0-15-6-15-14v-46h-17z m0 0m-30-785c0-14 11-25 25-25h167c14 0 25 11 25 25v48c0 34-22 63-53 73 10 12 17 28 17 46 0 23-11 44-29 58-7 5-16 3-21-3-5-7-3-16 3-21 11-8 17-20 17-34 0-24-19-43-42-43-24 0-43 19-43 43 0 14 6 26 17 34 7 5 8 14 3 21-5 6-14 8-20 3-19-14-29-35-29-58 0-18 6-34 16-46-30-10-53-39-53-73z m29 48c0 26 21 47 47 47h65c26 0 47-21 47-47v-44h-18v46c0 8-7 15-15 15-8 0-14-7-14-15v-46h-64v46c0 8-7 15-15 15s-15-7-15-15v-46h-18z m0 0m333 621l75-37c13-7 30 4 30 19l-2 84c0 15-17 23-30 15l-28-18c-39 45-87 81-142 105-7 3-16-1-19-8-3-7 0-16 8-19 49-22 93-54 128-94l-21-13c-13-9-13-28 1-34z m74 47l1-51-46 22z m0 0m-183-614l84-3c15-1 24 15 17 29l-15 27c49 36 89 82 118 135 3 8 1 17-6 20-8 4-16 1-20-6-26-48-63-90-107-123l-13 24c-7 13-26 14-33 1l-42-73c-7-13 2-30 17-31z m41 73l26-46-51 2z m0 0m-513 142c-13 6-29-5-29-20l4-84c0-15 17-23 30-14l26 17c38-44 87-79 140-103 7-3 16 1 19 8 4 8 0 16-7 19-49 21-92 53-128 93l23 15c13 8 12 27-2 33z m3-84l-2 51 46-21c-46-31 3 1-44-30z m0 0m-25 424c-4-8-1-16 6-20 7-4 16-1 20 6 25 49 62 92 106 125l16-25c9-14 28-13 34 0 0 0 0 0 0 0l37 76c6 13-4 29-19 29 0 0 0 0 0 0l-84-2c-15 0-23-17-15-30l15-24c-48-35-88-82-116-135z m186 162l-22-46-29 45z m0 0" horiz-adv-x="1000" />

<glyph glyph-name="tie" unicode="&#xe840;" d="M483 389c-3 7-12 10-19 6-8-3-10-12-7-20l59-112c0 0 0-1 0-1 0-1 0-1-1-1l-85-38c-3 11-49 220-51 232 0 0-27 123-27 123l74-142c2-5 7-8 13-8 2 0 4 1 7 2 7 4 9 13 6 20l-122 232c9 20 35 78 45 98 4 10 4 22-2 31l-13 23c-6 10-17 16-29 16-17 0-166 0-187 0-11 0-22-6-28-16-3-5-11-18-14-23-5-9-6-21-1-31l45-100c-3-13-142-647-145-659-5-22 6-44 25-55 24-14 170-99 190-110 13-8 30-8 43 0l191 110c19 11 29 33 24 55l-38 173 91 40c8 3 14 10 17 18 3 8 2 17-2 25z m-390-428l299 299 10-47-273-273z m-61 39l342 341c1-5 9-42 10-47l-318-318-26 15c-3 2-6 5-8 9z m21 120l156 156c6 6 6 15 0 21-6 5-15 5-21 0l-123-124c13 63 11 54 16 74l257 257c2-7 6-29 10-47l-111-112c-6-6-6-15 0-21 5-5 15-5 20 0l99 99 10-48-329-329z m56 255l211 211 10-48-237-238z m64 292h88l-112-112z m140-47l-192-192 16 74 165 165z m-157-696l253 255 11-48-228-228z m178 895l14-23c0-1 1-2 0-4l-21-46-75 75h79c1 0 3-1 3-2z m-123 2l103-103-10-21c-10 0-4 0-27 0l-124 124z m-83-25l3 6 105-105h-65l-44 95c0 2 0 3 1 4z m307-805l-190-110c-5-2-10-2-14 0l-13 7 209 209 18-82c3-10-2-19-10-24z m0 0" horiz-adv-x="1000" />

<glyph glyph-name="workflow-1" unicode="&#xe841;" d="M779 656l-190 190c-2 2-6 4-10 4h-534c-25 0-45-20-45-45v-910c0-25 20-45 45-45h312c9 0 15 7 15 15s-6 14-15 14h-312c-9 0-16 7-16 16v910c0 9 7 16 16 16h519v-145c0-25 20-45 45-45h145v-247c0-8 7-14 15-14 8 0 14 6 14 14v262c0 3-1 7-4 10z m-170 4c-9 0-16 7-16 16v124l140-140z m0 0m-169 32c8 0 15 6 15 14 0 8-7 15-15 15h-112c-8 0-14-7-14-15 0-8 6-14 14-14z m0 0m-112-211h112c8 0 15 6 15 14s-7 15-15 15h-112c-8 0-14-6-14-15s6-14 14-14z m0 0m0-52h112c8 0 15 6 15 14s-7 15-15 15h-112c-8 0-14-7-14-15s6-14 14-14z m0 0m127-38c0 8-7 15-15 15h-112c-8 0-14-7-14-15s6-14 14-14h112c8 0 15 6 15 14z m0 0m-138-268c0-37 30-67 67-67s67 30 67 67c0 32-22 58-52 65v51h170c1 0 1 0 1-1v-50c-30-7-52-33-52-65 0-37 30-67 67-67 37 0 67 30 67 67 0 32-23 58-53 65v50c0 17-13 30-30 30h-170v50h64c21 0 38 17 38 38v175c0 21-17 38-38 38h-158c-21 0-38-17-38-38v-175c0-21 17-38 38-38h65v-50h-171c-17 0-30-13-30-30v-50c-30-7-52-33-52-65 0-37 30-67 67-67 37 0 67 30 67 67 0 32-23 58-53 65v50c0 1 1 1 1 1h171v-51c-30-7-53-33-53-65z m305 0c0-21-17-38-37-38-21 0-38 17-38 38s17 38 38 38c20 0 37-17 37-38z m-326 233v175c0 5 4 9 9 9h158c5 0 9-4 9-9v-175c0-5-4-9-9-9h-158c-5 0-9 4-9 9z m-75-233c0-21-17-38-37-38-21 0-38 17-38 38s17 38 38 38c20 0 37-17 37-38z m201 0c0-21-17-38-38-38-21 0-37 17-37 38 0 20 15 36 34 37 1 0 2 0 3 0s2 0 3 0c20-1 35-17 35-37z m0 0m347 208c-8 0-15-7-15-15v-421c0-9-7-16-16-16h-312c-8 0-15-6-15-14s7-15 15-15h312c25 0 45 20 45 45v421c0 8-6 15-14 15z m0 0" horiz-adv-x="1000" />

<glyph glyph-name="workflow" unicode="&#xe842;" d="M363 850c-36 0-66-29-66-65v-15h-49c-12 0-22-6-27-15h-151c-39 0-70-32-70-70v-765c0-39 31-70 70-70h259c8 0 15 7 15 15 0 8-7 14-15 14h-259c-22 0-41 19-41 41v765c0 22 19 40 41 40h147v-32h-136c-11 0-19-9-19-19v-743c0-11 8-20 19-20h563c11 0 20 9 20 20v743c0 10-9 19-20 19h-136v32h147c23 0 41-18 41-40v-350c0-8 7-15 15-15 8 0 14 7 14 15v350c0 38-31 70-70 70h-151c-5 9-15 15-26 15h-50v15c0 36-29 65-65 65z m-36-65c0 20 16 36 36 36s36-16 36-36v-15h-72z m308-844h-544v723h127c2-14 15-25 30-25h230c14 0 27 11 30 25h127z m-156 799v0 0 0-71c0 0-1 0-1 0h-230c-1 0-1 0-1 0 0 41 0 31 0 71 0 0 0 0 0 0 0 0 0 1 1 1h230c0 0 1-1 1-1z m0 0m-102-306h5c20 0 35 16 35 35v39c0 19-15 35-35 35h-39c-19 0-35-16-35-35v-39c0-19 16-35 35-35h5v-50h-140c-17 0-30-14-30-31v-57h-5c-19 0-35-16-35-36v-38c0-20 16-36 35-36h39c19 0 35 16 35 36v38c0 20-16 36-35 36h-5v57c0 1 1 2 1 2h140v-59h-5c-19 0-35-16-35-36v-38c0-20 16-36 35-36h39c20 0 35 16 35 36v38c0 20-15 36-35 36h-5v59h140c1 0 1-1 1-2v-57h-4c-20 0-36-16-36-36v-38c0-20 16-36 36-36h38c20 0 36 16 36 36v38c0 20-16 36-36 36h-4v57c0 17-14 31-31 31h-140z m-40 35v39c0 3 3 6 6 6h39c3 0 6-3 6-6v-39c0-3-3-6-6-6h-39c-3 0-6 3-6 6z m-119-209v-38c0-4-3-6-6-6h-39c-3 0-6 2-6 6v38c0 4 3 6 6 6h39c3 0 6-2 6-6z m170 0v-38c0-4-3-6-6-6h-39c-3 0-6 2-6 6v38c0 4 3 6 6 6h39c3 0 6-2 6-6z m170 0v-38c0-4-2-6-6-6h-38c-4 0-6 2-6 6v38c0 4 2 6 6 6h38c4 0 6-2 6-6z m0 0m-246 313h101c9 0 15 7 15 15s-6 15-15 15h-101c-8 0-15-7-15-15s7-15 15-15z m0 0m221-422h-341c-8 0-14-7-14-15 0-8 6-15 14-15h341c8 0 15 7 15 15 0 8-7 15-15 15z m0 0m0-61h-341c-8 0-14-7-14-15s6-15 14-15h341c8 0 15 7 15 15s-7 15-15 15z m0 0m0-61h-341c-8 0-14-7-14-15 0-8 6-15 14-15h341c8 0 15 7 15 15 0 8-7 15-15 15z m0 0m-256 676c0-8 6-15 15-15h142c8 0 14 7 14 15 0 8-6 14-14 14h-142c-9 0-15-6-15-14z m0 0m378-855c39 0 70 31 70 70v346c0 8-6 15-14 15-8 0-15-7-15-15v-346c0-22-18-41-41-41h-257c-9 0-15-6-15-14 0-8 6-15 15-15z m0 0" horiz-adv-x="1000" />

<glyph glyph-name="wrench" unicode="&#xe843;" d="M430 219l201 201c16 16 16 42 0 57l-4 4c-15 16-41 16-57 0l-201-201c-16-16-16-41 0-57l4-4c16-16 41-16 57 0z m-41 40l202 202c4 4 11 4 16 0l4-4c4-5 4-12 0-16l-202-202c-4-4-11-4-16 0l-4 4c-4 5-4 12 0 16z m0 0m-72-226l-24 92c-3 9-9 15-18 18l-92 24c-8 2-17 0-24-6l-31-32c-6-6-6-15 0-21 5-5 15-5 20 0l30 30 87-23 23-87-131-131c-15-15-7-39 12-43 146-29 274 96 251 241-2 12 1 24 10 33l292 292c9 9 21 13 33 11 50-9 102 2 145 29 7 4 9 13 5 20-4 7-13 9-20 5-37-24-82-33-125-25-22 3-43-4-58-19l-293-292c-15-15-22-37-18-58 19-122-85-229-208-209l128 127c6 7 8 16 6 24z m0 0m679 648c-4 19-28 27-42 13l-132-132-87 23-23 87 132 132c14 14 6 38-13 42-68 14-139-7-189-55-49-48-72-118-61-186 2-12-2-24-10-32l-293-293c-9-9-21-13-33-11-147 24-270-106-241-250 4-19 29-26 43-12l53 53c6 6 6 15 0 21-6 5-15 5-21 0l-47-48c-19 122 86 227 209 207 21-3 42 4 57 19l293 293c15 15 22 36 19 58-10 59 10 118 53 160 41 39 98 57 154 49l-128-128c-6-6-8-16-6-24l25-92c2-8 9-15 17-17l92-25c8-2 18 0 24 7l128 127c7-50-6-100-37-140-5-6-4-16 3-21 6-5 15-4 20 3 38 48 53 111 41 172z m0 0" horiz-adv-x="1000" />

<glyph glyph-name="arrow-down" unicode="&#xe844;" d="M274-147c-3 0-6 2-8 2-3 0-5 3-5 5l-229 230c-8 7-11 18-11 28s5 22 11 29c15 16 39 16 55 0l160-160v824c3 21 21 39 43 39 21 0 39-18 39-39v-827l161 161c15 16 39 16 55 0 16-16 16-40 0-55l-229-230c-3-2-3-2-5-5-3-2-6-2-8-2-8-3-19-3-29 0z" horiz-adv-x="579" />

<glyph glyph-name="arrow-left" unicode="&#xe845;" d="M5 377c0 5 4 9 4 14 0 5 5 9 9 9l396 396c13 9 32 18 50 18s36-9 50-18c27-28 27-69 0-96l-282-282h1427c37 0 68-32 68-68 0-36-31-68-68-68h-1427l277-277c27-28 27-69 0-96-27-27-68-27-95 0l-396 396c-4 4-4 4-9 9-4 4-4 9-4 13-5 14-5 32 0 50z" horiz-adv-x="1727" />

<glyph glyph-name="arrow-right" unicode="&#xe846;" d="M1723 323c0-5-5-9-5-14 0-4-4-9-9-9l-395-396c-14-13-32-18-50-18s-37 9-50 18c-28 28-28 69 0 96l277 277h-1423c-36 5-68 37-68 73 0 36 32 68 68 68h1428l-278 278c-27 27-27 68 0 95 28 27 68 27 96 0l395-395c5-5 5-5 9-10 5-4 5-9 5-13 4-14 4-32 0-50z" horiz-adv-x="1727" />

<glyph glyph-name="arrow-up" unicode="&#xe847;" d="M305 847c3 0 6-2 8-2 3 0 5-3 5-5l229-229c8-8 11-19 11-29s-5-21-11-29c-15-16-39-16-55 0l-160 160v-826c0-21-19-40-40-40-21 0-39 19-39 40v829l-161-161c-16-15-39-15-55 0-16 16-16 40 0 56l229 229c2 2 2 2 5 5 3 2 5 2 8 2 5 3 16 3 26 0z" horiz-adv-x="579" />

<glyph glyph-name="arrow-long-down" unicode="&#xe848;" d="M321-6l-138-138c-5-4-12-6-18-6s-13 3-17 6l-138 138c-10 10-10 24 0 34 9 9 23 9 33 0l100-97v895c0 13 11 24 24 24 12 0 24-11 24-24v-895l96 97c10 9 24 9 34 0 9-8 9-24 0-34z" horiz-adv-x="333" />

<glyph glyph-name="arrow-long-left" unicode="&#xe849;" d="M433-112l-414 414c-9 10-19 29-19 48s10 38 19 52l414 415c29 28 72 28 100 0 29-29 29-72 0-100l-290-296h2686c38 0 71-33 71-71 0-38-33-71-71-71h-2686l290-291c29-29 29-71 0-100-23-29-71-29-100 0z" horiz-adv-x="3000" />

<glyph glyph-name="long-arrow-right" unicode="&#xe84a;" d="M2567 812l414-414c14-15 19-34 19-53s-9-38-19-52l-414-414c-29-29-72-29-100 0-29 28-29 71 0 100l290 290h-2686c-38 10-71 43-71 81 0 38 33 71 71 71h2686l-290 291c-29 29-29 71 0 100 24 29 71 29 100 0z" horiz-adv-x="3000" />

<glyph glyph-name="long-arrow-up" unicode="&#xe84b;" d="M13 706l138 138c3 3 9 6 16 6s12-3 17-6l138-138c10-10 10-24 0-34-9-9-24-9-33 0l-98 97v-895c0-13-12-24-24-24-13 0-24 11-24 24v895l-97-97c-9-9-24-9-33 0-10 8-10 24 0 34z" horiz-adv-x="333" />
</font>
</defs>
</svg>
