<?xml version="1.0" standalone="no"?>
<!DOCTYPE svg PUBLIC "-//W3C//DTD SVG 20010904//EN"
 "http://www.w3.org/TR/2001/REC-SVG-20010904/DTD/svg10.dtd">
<svg version="1.0" xmlns="http://www.w3.org/2000/svg"
 width="3807.000000pt" height="773.000000pt" viewBox="0 0 3807.000000 773.000000"
 preserveAspectRatio="xMidYMid meet">
<metadata>
Created by potrace 1.16, written by Peter Selinger 2001-2019
</metadata>
<g transform="translate(0.000000,773.000000) scale(0.100000,-0.100000)"
fill="#000000" stroke="none">
<path d="M3853 7716 c-9 -11 -7 -28 8 -77 80 -256 208 -896 183 -918 -5 -5
-106 -36 -224 -71 -686 -200 -1176 -418 -1570 -700 -501 -359 -862 -829 -1103
-1440 -168 -425 -247 -780 -264 -1175 l-6 -150 -191 -75 c-244 -96 -504 -224
-581 -287 -35 -28 -70 -67 -83 -93 -21 -40 -23 -56 -19 -135 8 -188 131 -443
369 -763 96 -129 223 -283 241 -294 16 -8 439 78 732 150 132 33 265 63 295
66 174 22 489 125 1049 346 416 163 633 258 895 390 565 286 995 587 1336 936
161 165 233 252 344 417 185 275 316 599 378 940 30 161 32 534 5 692 -62 359
-221 726 -459 1062 -32 45 -61 83 -66 85 -4 1 -24 25 -44 51 -142 187 -386
444 -568 597 -36 30 -67 57 -70 60 -3 3 -21 17 -42 32 -20 15 -42 33 -50 41
-52 50 -454 327 -474 327 -5 -1 -14 -7 -21 -14z m178 -2204 c-96 -473 -291
-826 -595 -1075 -38 -31 -71 -55 -73 -53 -8 7 31 175 59 254 87 249 365 732
572 995 76 97 79 88 37 -121z"/>
<path d="M12050 6369 c-616 -57 -1087 -330 -1409 -814 -283 -426 -409 -1084
-321 -1682 93 -635 414 -1065 953 -1277 93 -37 269 -82 401 -103 157 -25 575
-25 731 0 606 97 1038 408 1295 933 260 532 313 1340 123 1894 -52 154 -162
365 -236 456 -181 221 -365 364 -597 462 -269 114 -611 162 -940 131z m227
-150 c230 -76 422 -347 539 -762 92 -326 131 -702 120 -1136 -14 -559 -77
-960 -192 -1241 -103 -249 -228 -385 -411 -446 -100 -34 -235 -36 -330 -6
-355 112 -605 565 -700 1267 -22 163 -25 740 -5 935 52 499 162 884 319 1116
170 250 418 353 660 273z"/>
<path d="M18810 6330 c-96 -17 -152 -57 -189 -134 -22 -45 -178 -476 -352
-976 -323 -923 -635 -1796 -761 -2125 -158 -413 -149 -400 -287 -441 -98 -30
-131 -57 -131 -107 l0 -32 603 0 602 0 -2 34 c-2 55 -24 66 -188 96 -183 34
-212 45 -221 81 -8 32 17 163 120 633 43 195 79 336 86 341 8 5 39 11 69 14
139 15 1221 52 1244 43 7 -3 19 -25 26 -48 14 -47 57 -165 211 -579 141 -380
151 -418 117 -441 -5 -4 -88 -19 -185 -35 -172 -28 -175 -29 -194 -59 -10 -16
-17 -41 -16 -55 l3 -25 808 -1 c468 0 810 3 813 8 12 18 -7 78 -28 89 -11 6
-74 26 -139 44 -66 17 -128 40 -139 50 -22 20 -128 344 -347 1065 -192 634
-367 1210 -408 1350 -24 80 -76 253 -115 385 -40 132 -109 365 -155 518 -54
184 -88 282 -100 291 -32 23 -630 36 -745 16z m-59 -645 c26 -77 99 -297 162
-490 102 -310 241 -716 396 -1152 l50 -143 -207 0 c-212 0 -478 11 -752 31
-227 17 -244 20 -248 46 -2 12 27 129 63 260 122 434 226 806 282 998 30 105
75 260 99 345 66 232 74 252 92 248 11 -2 31 -49 63 -143z"/>
<path d="M6521 6316 c-16 -19 -5 -80 17 -99 10 -8 69 -27 132 -42 134 -31 155
-42 164 -87 8 -47 24 -739 41 -1818 19 -1172 19 -1564 3 -1578 -7 -5 -80 -24
-163 -42 -82 -18 -158 -39 -167 -48 -11 -9 -18 -29 -18 -51 l0 -36 773 0 772
0 3 30 c5 55 -20 69 -185 100 -81 15 -156 33 -165 39 -17 10 -18 55 -18 708 0
384 3 698 8 698 4 0 39 -32 77 -71 62 -63 274 -255 434 -393 244 -211 930
-872 938 -904 4 -17 1 -29 -9 -36 -9 -6 -82 -24 -163 -40 -163 -32 -188 -46
-183 -101 l3 -30 753 0 753 0 6 23 c11 46 -24 74 -150 117 -65 22 -131 52
-148 65 -16 14 -139 169 -271 345 -133 176 -256 338 -275 360 -18 22 -92 114
-164 205 -72 91 -149 187 -172 214 -23 27 -63 76 -90 109 -26 32 -53 65 -60
71 -6 7 -34 40 -62 72 -124 146 -358 397 -475 507 -149 143 -180 175 -180 187
0 15 76 117 95 128 7 4 44 36 82 72 38 36 87 81 109 100 21 19 118 107 214
194 185 169 200 181 325 291 44 39 102 91 130 116 27 26 66 60 85 75 19 16 51
43 70 61 19 17 98 84 175 147 155 128 252 184 374 213 62 15 77 22 93 48 10
16 17 44 16 60 l-3 30 -635 0 c-610 0 -635 -1 -638 -18 -7 -34 8 -86 26 -91 9
-3 69 -15 132 -26 168 -29 160 -27 160 -58 0 -44 -80 -154 -340 -471 -191
-232 -175 -214 -255 -305 -39 -45 -95 -110 -125 -146 -52 -62 -189 -219 -200
-230 -3 -3 -61 -68 -130 -145 -68 -77 -129 -145 -135 -151 -9 -10 -82 -92
-149 -169 l-26 -30 6 185 c14 509 49 1327 59 1404 3 22 15 47 25 56 11 10 79
29 157 46 76 15 145 34 152 42 9 8 15 34 15 61 l1 46 -806 3 c-689 2 -808 0
-818 -12z"/>
<path d="M13947 6323 c-12 -11 -7 -79 7 -98 9 -12 47 -26 116 -41 57 -13 111
-31 121 -40 10 -9 82 -141 159 -292 119 -232 225 -431 370 -697 15 -27 49 -90
75 -140 27 -49 83 -153 125 -230 43 -77 106 -194 142 -260 36 -66 75 -138 88
-160 84 -145 198 -387 208 -440 13 -66 31 -581 34 -968 1 -204 -1 -250 -13
-262 -8 -7 -86 -28 -174 -45 -88 -17 -167 -33 -176 -36 -20 -6 -42 -55 -37
-81 3 -17 37 -18 821 -18 l817 -1 0 23 c0 12 -5 33 -11 47 -13 28 -21 30 -233
65 -74 13 -126 27 -137 37 -18 16 -19 40 -18 473 1 498 11 807 28 861 13 43
64 132 290 509 97 162 187 313 200 335 13 23 78 131 145 241 200 328 367 609
503 850 97 170 114 187 227 225 50 17 97 34 105 39 9 6 15 27 15 58 l1 48
-604 0 c-660 0 -633 2 -618 -56 13 -53 35 -64 178 -83 168 -23 179 -27 179
-66 0 -59 -161 -570 -275 -870 -52 -136 -173 -430 -236 -571 -21 -49 -57 -131
-80 -181 -69 -157 -142 -299 -153 -295 -6 2 -26 39 -44 83 -19 43 -59 135 -89
204 -217 493 -673 1597 -673 1630 0 32 46 46 205 65 162 20 177 27 190 86 14
63 67 59 -895 59 -482 0 -880 -3 -883 -7z"/>
<path d="M21092 6318 c-19 -19 -14 -57 11 -81 16 -17 57 -31 156 -52 106 -24
137 -34 148 -51 11 -18 16 -130 23 -585 20 -1184 32 -2803 21 -2831 -14 -37
-25 -41 -191 -73 -80 -15 -151 -33 -158 -39 -6 -7 -13 -29 -15 -51 l-2 -39
1050 -2 c578 -1 1165 -7 1305 -13 140 -6 307 -11 371 -11 114 0 117 1 133 25
24 36 188 862 177 884 -16 29 -59 63 -76 59 -10 -2 -95 -127 -197 -288 -99
-157 -191 -298 -206 -313 -29 -30 -91 -68 -142 -86 -120 -41 -701 -105 -1036
-113 -91 -2 -125 0 -137 11 -14 11 -17 35 -17 155 0 191 27 1379 40 1751 39
1124 56 1494 71 1542 6 18 18 34 27 37 9 3 96 17 192 32 96 14 181 30 187 36
7 5 15 25 19 44 13 68 73 64 -880 64 -657 0 -865 -3 -874 -12z"/>
<path d="M3835 2462 c-329 -183 -951 -432 -1737 -693 -244 -82 -428 -148 -428
-155 0 -34 410 -165 680 -218 260 -51 367 -60 665 -60 239 0 301 3 424 22 167
27 367 76 501 125 147 53 137 50 120 38 -37 -27 10 -7 89 38 47 27 126 70 174
96 l89 47 -7 37 c-9 49 -70 174 -150 305 -77 128 -292 451 -309 465 -7 6 -45
-10 -111 -47z"/>
<path d="M6865 1738 c-7 -21 -275 -1321 -275 -1335 0 -10 73 -13 384 -13 353
0 389 2 447 20 197 60 330 241 317 429 -8 106 -67 195 -158 236 l-39 18 62 37
c117 70 174 178 165 314 -11 169 -108 264 -300 296 -95 15 -597 13 -603 -2z
m559 -158 c106 -13 156 -61 164 -155 9 -108 -50 -192 -161 -230 -42 -14 -95
-19 -271 -23 l-219 -4 6 23 c3 13 22 108 43 212 l38 187 166 0 c91 -1 196 -5
234 -10z m2 -593 c80 -26 117 -78 118 -167 0 -106 -66 -200 -173 -242 -52 -21
-75 -23 -310 -26 l-254 -4 6 24 c4 13 26 117 49 232 l43 208 235 -5 c178 -3
247 -8 286 -20z"/>
<path d="M9145 1728 c-2 -13 -11 -54 -20 -91 -8 -38 -15 -72 -15 -78 0 -5 40
-9 88 -9 l88 0 17 83 c26 125 31 117 -68 117 -80 0 -85 -1 -90 -22z"/>
<path d="M9555 1728 c-10 -45 -275 -1326 -275 -1332 0 -3 40 -6 88 -6 l88 0
88 428 c49 235 113 541 141 680 l52 252 -88 0 c-84 0 -89 -1 -94 -22z"/>
<path d="M10562 1542 c-24 -114 -48 -228 -53 -254 l-11 -48 -38 49 c-126 160
-380 140 -546 -43 -63 -69 -127 -193 -150 -291 -26 -107 -24 -272 4 -361 27
-89 88 -161 169 -200 46 -23 69 -28 132 -28 94 0 166 30 242 101 29 26 50 41
47 32 -4 -9 -10 -37 -13 -63 l-7 -46 81 0 c75 0 81 1 86 23 9 38 275 1326 275
1332 0 3 -39 5 -87 5 l-88 0 -43 -208z m-261 -303 c47 -16 98 -65 122 -118 41
-91 18 -284 -49 -411 -119 -228 -331 -270 -426 -85 -29 56 -36 197 -14 285 37
148 126 283 211 321 46 21 107 24 156 8z"/>
<path d="M11016 1664 c-10 -47 -20 -92 -23 -100 -4 -11 12 -14 85 -14 l90 0
15 68 c8 37 18 82 22 100 l7 32 -90 0 -89 0 -17 -86z"/>
<path d="M13980 1683 c-7 -38 -15 -74 -18 -80 -3 -10 45 -13 222 -13 124 0
226 -4 226 -9 0 -6 -144 -699 -233 -1123 l-15 -68 97 0 96 0 125 600 125 600
219 2 220 3 13 60 c7 33 12 68 13 78 0 16 -32 17 -538 17 l-538 0 -14 -67z"/>
<path d="M19566 1728 c-8 -13 -181 -319 -384 -681 l-370 -657 107 0 108 0 104
190 104 189 273 1 c149 0 272 -4 272 -8 0 -10 48 -309 56 -344 l6 -28 89 0
c72 0 89 3 89 15 0 16 -206 1285 -215 1323 -5 21 -10 22 -115 22 -103 0 -110
-1 -124 -22z m154 -586 c16 -107 30 -200 30 -208 0 -12 -36 -14 -214 -14
l-214 0 140 258 c78 141 154 286 171 322 l30 65 13 -115 c8 -63 27 -202 44
-308z"/>
<path d="M21060 1693 c-7 -32 -31 -147 -54 -255 l-41 -197 -47 53 c-68 77
-122 101 -229 101 -78 0 -91 -3 -160 -37 -208 -103 -332 -350 -317 -630 12
-206 107 -329 277 -359 101 -18 204 18 298 104 l42 38 -9 -33 c-4 -18 -11 -45
-14 -60 l-6 -28 85 0 c47 0 85 4 85 9 0 11 269 1310 276 1334 5 15 -4 17 -85
17 l-90 0 -11 -57z m-282 -458 c84 -36 124 -103 130 -220 8 -152 -43 -300
-139 -408 -59 -67 -117 -97 -185 -97 -228 1 -271 371 -73 636 67 90 176 126
267 89z"/>
<path d="M22116 1733 c-2 -10 -26 -121 -52 -248 -26 -126 -49 -232 -51 -234
-1 -2 -23 19 -47 46 -64 70 -128 98 -231 98 -72 0 -88 -4 -159 -38 -106 -50
-181 -128 -241 -251 -61 -122 -78 -208 -72 -361 5 -153 28 -217 101 -291 121
-120 304 -118 454 4 l54 44 -7 -34 c-4 -18 -9 -43 -12 -56 -5 -23 -4 -23 78
-20 l84 3 137 660 c75 363 137 668 138 678 0 15 -11 17 -84 17 -72 0 -85 -3
-90 -17z m-254 -519 c85 -60 114 -174 84 -333 -39 -207 -175 -371 -309 -371
-85 0 -157 54 -186 140 -52 155 9 398 132 523 60 61 99 77 180 73 44 -2 66 -9
99 -32z"/>
<path d="M22545 1738 c-8 -27 -35 -158 -35 -173 0 -13 13 -15 87 -13 l87 3 17
80 c27 123 32 115 -66 115 -60 0 -87 -4 -90 -12z"/>
<path d="M25476 1733 c2 -10 56 -292 119 -628 64 -335 120 -634 126 -662 l10
-53 104 0 103 0 366 671 c201 370 366 676 366 681 0 5 -44 7 -97 6 l-97 -3
-154 -285 c-84 -157 -220 -411 -302 -564 -82 -154 -151 -273 -154 -265 -2 8
-10 50 -16 94 -6 44 -52 290 -101 546 -49 256 -89 469 -89 472 0 4 -42 7 -94
7 -85 0 -94 -2 -90 -17z"/>
<path d="M27806 1733 c-7 -25 -276 -1324 -276 -1334 0 -5 39 -9 88 -9 l87 0
138 668 c76 367 138 673 137 680 0 8 -24 12 -84 12 -72 0 -85 -3 -90 -17z"/>
<path d="M17777 1676 c-48 -29 -89 -55 -92 -57 -2 -3 -13 -47 -25 -99 -11 -52
-22 -105 -25 -117 -5 -21 -11 -23 -70 -23 -69 0 -67 2 -80 -70 -4 -19 -9 -43
-11 -52 -5 -16 3 -18 61 -18 65 0 67 -1 62 -22 -3 -13 -36 -172 -73 -354 -50
-248 -65 -341 -60 -370 9 -48 59 -98 111 -113 44 -12 135 -14 183 -5 28 6 32
11 42 63 6 31 14 64 16 73 5 16 -2 17 -59 11 -81 -7 -107 5 -107 52 0 18 29
174 65 345 36 171 65 313 65 316 0 2 38 4 84 4 l83 0 6 38 c4 20 9 52 13 70
l7 32 -82 0 c-79 0 -81 1 -76 23 15 66 65 309 65 317 0 16 -11 11 -103 -44z"/>
<path d="M11778 1390 c-58 -15 -147 -64 -208 -114 -29 -25 -55 -44 -56 -43 -2
1 4 31 11 67 8 36 14 69 15 73 0 4 -37 7 -82 5 l-82 -3 -97 -468 c-53 -257
-100 -479 -103 -492 l-6 -25 89 0 c84 0 89 1 95 23 3 13 26 124 51 248 68 330
101 416 191 499 80 73 197 107 278 80 87 -28 86 -68 -13 -517 -39 -178 -71
-325 -71 -328 0 -3 40 -5 88 -5 l88 0 73 332 c79 356 91 442 71 512 -16 59
-69 119 -122 141 -51 20 -159 28 -210 15z"/>
<path d="M12640 1385 c-153 -43 -300 -196 -361 -375 -44 -130 -36 -323 17
-437 31 -66 118 -146 180 -167 108 -37 252 -13 336 55 22 17 41 29 44 26 6 -6
-22 -130 -42 -187 -36 -100 -97 -144 -212 -156 -123 -13 -212 34 -212 112 0
25 -4 34 -17 35 -10 0 -51 4 -91 8 l-74 7 4 -71 c3 -58 9 -80 30 -113 55 -82
162 -122 329 -122 230 0 355 86 423 290 13 41 70 293 126 560 55 267 103 495
107 508 5 22 3 22 -79 22 l-85 0 -13 -70 c-7 -38 -14 -70 -16 -70 -2 0 -26 24
-54 54 -31 32 -71 63 -101 76 -67 28 -168 34 -239 15z m188 -151 c152 -63 186
-268 82 -491 -87 -187 -277 -265 -396 -161 -56 49 -77 100 -82 199 -10 189 89
389 221 449 51 24 125 25 175 4z"/>
<path d="M15330 1383 c-32 -11 -67 -39 -121 -92 l-76 -77 14 65 c7 37 16 74
19 84 5 15 -3 17 -75 17 -79 0 -81 -1 -87 -26 -4 -15 -50 -236 -104 -493 l-97
-466 80 -3 c54 -2 83 1 88 9 4 6 14 50 24 98 41 212 89 411 112 471 38 95 88
165 150 209 67 49 115 58 172 35 23 -9 43 -15 45 -13 2 2 18 38 35 79 30 70
31 75 14 87 -46 34 -123 40 -193 16z"/>
<path d="M16868 1387 c-106 -24 -203 -107 -228 -195 -15 -56 -12 -132 9 -177
28 -63 98 -117 229 -176 156 -70 206 -102 226 -143 21 -46 20 -67 -6 -106 -33
-49 -66 -69 -130 -80 -111 -21 -226 21 -270 97 -10 17 -21 54 -25 82 l-6 51
-51 0 c-28 0 -68 -3 -90 -7 l-38 -6 6 -58 c13 -112 51 -181 125 -228 177 -114
466 -97 593 33 83 85 103 211 52 315 -35 69 -73 96 -271 191 -111 54 -166 86
-179 104 -44 68 6 147 108 168 85 18 160 -2 215 -57 31 -30 44 -53 49 -83 l7
-42 61 0 c33 0 72 3 85 7 22 6 23 10 18 58 -11 103 -85 194 -192 234 -73 27
-217 36 -297 18z"/>
<path d="M23286 1389 c-59 -14 -147 -65 -211 -122 -38 -33 -56 -44 -52 -31 11
35 27 109 27 127 0 15 -10 17 -79 17 -73 0 -79 -2 -84 -22 -13 -53 -197 -946
-197 -957 0 -8 24 -11 87 -9 l87 3 52 252 c72 350 97 417 182 502 61 61 130
93 212 98 108 7 159 -41 145 -137 -6 -44 -140 -667 -151 -702 -5 -16 4 -18 85
-18 50 0 91 1 91 3 0 1 32 144 71 317 80 356 93 470 65 544 -43 111 -184 169
-330 135z"/>
<path d="M24166 1389 c-251 -59 -438 -370 -398 -664 20 -152 82 -248 194 -305
54 -26 71 -30 147 -30 95 0 158 22 231 80 30 23 37 26 34 13 -22 -101 -49
-193 -64 -222 -37 -72 -98 -108 -203 -118 -117 -10 -191 28 -203 106 -4 23
-12 41 -18 42 -6 0 -46 4 -88 7 l-78 8 0 -46 c0 -75 19 -121 69 -171 69 -70
150 -92 319 -87 112 3 134 6 184 30 105 49 179 139 222 273 14 45 226 1042
226 1065 0 6 -35 10 -80 10 l-79 0 -10 -37 c-5 -21 -13 -55 -17 -76 l-6 -38
-30 41 c-75 102 -218 150 -352 119z m216 -176 c27 -19 54 -51 72 -88 26 -50
30 -66 29 -138 -2 -158 -81 -329 -186 -401 -215 -147 -408 36 -343 328 33 145
113 266 211 316 62 32 160 24 217 -17z"/>
<path d="M26940 1389 c-125 -21 -241 -108 -302 -225 -38 -74 -33 -83 37 -84
22 0 56 -3 76 -6 33 -6 37 -4 43 20 9 37 72 103 120 128 50 26 163 35 225 18
26 -7 59 -26 78 -45 28 -28 33 -40 33 -78 0 -85 -9 -106 -49 -117 -20 -6 -101
-15 -181 -20 -193 -13 -224 -17 -300 -42 -90 -30 -171 -109 -196 -193 -43
-148 26 -306 156 -357 128 -50 297 -20 421 76 l44 33 10 -51 10 -51 88 -3 89
-3 -8 53 c-13 94 -5 164 42 381 52 239 61 358 32 413 -68 125 -257 187 -468
153z m254 -571 c-46 -198 -169 -313 -334 -312 -60 1 -102 18 -139 58 -35 37
-41 127 -12 174 42 66 95 85 297 107 113 13 182 24 201 34 1 1 -5 -27 -13 -61z"/>
<path d="M29453 1385 c-93 -21 -176 -69 -243 -142 -201 -219 -230 -603 -58
-772 116 -114 318 -140 484 -61 102 49 228 186 249 272 8 29 4 31 -111 42 -50
5 -51 4 -67 -30 -58 -121 -226 -209 -332 -174 -93 31 -146 113 -153 238 l-5
82 361 0 360 0 6 23 c11 41 6 212 -8 265 -30 112 -111 204 -215 243 -72 27
-186 33 -268 14z m180 -136 c84 -23 142 -105 153 -218 l7 -61 -272 0 -272 0 6
23 c55 181 228 298 378 256z"/>
<path d="M8036 1363 c-2 -10 -37 -162 -77 -338 -61 -271 -72 -335 -73 -417 -1
-92 0 -98 29 -139 103 -147 336 -137 509 21 31 29 56 48 56 44 0 -8 -10 -55
-25 -121 -5 -22 -3 -23 80 -23 47 0 85 3 85 6 0 3 47 221 105 485 58 264 105
484 105 489 0 7 -32 10 -87 8 l-87 -3 -18 -80 c-10 -44 -38 -172 -62 -285 -51
-232 -87 -319 -161 -394 -106 -106 -287 -139 -340 -63 -26 38 -17 113 60 459
41 186 75 345 75 353 0 12 -17 15 -84 15 -72 0 -85 -3 -90 -17z"/>
<path d="M9070 1374 c0 -4 -45 -223 -100 -489 -55 -265 -100 -484 -100 -488 0
-4 40 -7 88 -7 l88 0 98 474 c53 261 100 483 103 495 5 20 2 21 -86 21 -50 0
-91 -3 -91 -6z"/>
<path d="M10955 1368 c-2 -7 -47 -222 -100 -478 -53 -256 -98 -473 -101 -482
-5 -16 4 -18 84 -18 85 0 90 1 95 23 12 46 197 946 197 956 0 16 -169 15 -175
-1z"/>
<path d="M15568 1027 c-92 -419 -93 -424 -78 -486 13 -55 65 -123 111 -147
121 -62 284 -28 421 89 l65 55 -13 -61 c-20 -94 -25 -88 68 -85 l82 3 108 490
c59 270 107 491 108 493 0 1 -40 2 -89 2 l-89 0 -16 -72 c-119 -550 -132 -590
-215 -681 -110 -119 -298 -152 -357 -63 -23 36 -18 68 71 468 41 186 75 340
75 343 0 3 -39 5 -87 5 l-88 0 -77 -353z"/>
<path d="M22465 1358 c-19 -85 -195 -945 -195 -955 0 -11 20 -13 87 -11 l87 3
44 210 c24 116 69 337 101 493 l59 282 -89 0 c-84 0 -89 -1 -94 -22z"/>
<path d="M28101 1058 c-39 -178 -76 -350 -82 -383 -30 -168 40 -277 196 -306
107 -20 217 17 334 112 l64 52 -7 -34 c-3 -19 -9 -51 -13 -72 l-6 -37 81 0
c68 0 81 3 86 18 12 43 206 940 206 955 0 15 -12 17 -84 17 -72 0 -85 -3 -90
-17 -2 -10 -28 -126 -56 -258 -64 -295 -79 -346 -128 -421 -46 -70 -89 -109
-158 -141 -136 -62 -254 -26 -254 79 0 29 103 517 155 736 5 22 4 22 -83 22
l-89 0 -72 -322z"/>
<path d="M18007 496 c-9 -46 -17 -89 -17 -95 0 -8 29 -11 98 -9 l97 3 17 75
c26 119 32 110 -80 110 l-97 0 -18 -84z"/>
<path d="M30117 496 c-9 -46 -17 -89 -17 -95 0 -8 29 -11 98 -9 l97 3 17 75
c26 119 32 110 -80 110 l-97 0 -18 -84z"/>
</g>
</svg>
